G04 EAGLE Gerber RS-274X export*
G75*
%MOMM*%
%FSLAX34Y34*%
%LPD*%
%INSilkscreen Top*%
%IPPOS*%
%AMOC8*
5,1,8,0,0,1.08239X$1,22.5*%
G01*
%ADD10C,0.127000*%
%ADD11C,0.076200*%
%ADD12C,0.304800*%


D10*
X45381Y639285D02*
X53001Y650715D01*
X45381Y650715D02*
X53001Y639285D01*
X57573Y643730D02*
X65193Y643730D01*
X70864Y639285D02*
X70864Y650715D01*
X74039Y650715D01*
X74150Y650713D01*
X74260Y650707D01*
X74371Y650698D01*
X74481Y650684D01*
X74590Y650667D01*
X74699Y650646D01*
X74807Y650621D01*
X74914Y650592D01*
X75020Y650560D01*
X75125Y650524D01*
X75228Y650484D01*
X75330Y650441D01*
X75431Y650394D01*
X75530Y650343D01*
X75627Y650290D01*
X75721Y650233D01*
X75814Y650172D01*
X75905Y650109D01*
X75994Y650042D01*
X76080Y649972D01*
X76163Y649899D01*
X76245Y649824D01*
X76323Y649746D01*
X76398Y649664D01*
X76471Y649581D01*
X76541Y649495D01*
X76608Y649406D01*
X76671Y649315D01*
X76732Y649222D01*
X76789Y649127D01*
X76842Y649031D01*
X76893Y648932D01*
X76940Y648831D01*
X76983Y648729D01*
X77023Y648626D01*
X77059Y648521D01*
X77091Y648415D01*
X77120Y648308D01*
X77145Y648200D01*
X77166Y648091D01*
X77183Y647982D01*
X77197Y647872D01*
X77206Y647761D01*
X77212Y647651D01*
X77214Y647540D01*
X77212Y647429D01*
X77206Y647319D01*
X77197Y647208D01*
X77183Y647098D01*
X77166Y646989D01*
X77145Y646880D01*
X77120Y646772D01*
X77091Y646665D01*
X77059Y646559D01*
X77023Y646454D01*
X76983Y646351D01*
X76940Y646249D01*
X76893Y646148D01*
X76842Y646049D01*
X76789Y645953D01*
X76732Y645858D01*
X76671Y645765D01*
X76608Y645674D01*
X76541Y645585D01*
X76471Y645499D01*
X76398Y645416D01*
X76323Y645334D01*
X76245Y645256D01*
X76163Y645181D01*
X76080Y645108D01*
X75994Y645038D01*
X75905Y644971D01*
X75814Y644908D01*
X75721Y644847D01*
X75626Y644790D01*
X75530Y644737D01*
X75431Y644686D01*
X75330Y644639D01*
X75228Y644596D01*
X75125Y644556D01*
X75020Y644520D01*
X74914Y644488D01*
X74807Y644459D01*
X74699Y644434D01*
X74590Y644413D01*
X74481Y644396D01*
X74371Y644382D01*
X74260Y644373D01*
X74150Y644367D01*
X74039Y644365D01*
X70864Y644365D01*
X74674Y644365D02*
X77214Y639285D01*
X83989Y639285D02*
X87164Y639285D01*
X83989Y639285D02*
X83904Y639287D01*
X83818Y639293D01*
X83733Y639302D01*
X83649Y639316D01*
X83565Y639333D01*
X83482Y639354D01*
X83400Y639378D01*
X83320Y639406D01*
X83240Y639438D01*
X83162Y639474D01*
X83086Y639512D01*
X83012Y639555D01*
X82940Y639600D01*
X82869Y639649D01*
X82801Y639701D01*
X82736Y639755D01*
X82673Y639813D01*
X82612Y639874D01*
X82554Y639937D01*
X82500Y640002D01*
X82448Y640070D01*
X82399Y640141D01*
X82354Y640213D01*
X82311Y640287D01*
X82273Y640363D01*
X82237Y640441D01*
X82205Y640521D01*
X82177Y640601D01*
X82153Y640683D01*
X82132Y640766D01*
X82115Y640850D01*
X82101Y640934D01*
X82092Y641019D01*
X82086Y641105D01*
X82084Y641190D01*
X82084Y644365D01*
X82086Y644465D01*
X82092Y644564D01*
X82102Y644664D01*
X82115Y644762D01*
X82133Y644861D01*
X82154Y644958D01*
X82179Y645054D01*
X82208Y645150D01*
X82241Y645244D01*
X82277Y645337D01*
X82317Y645428D01*
X82361Y645518D01*
X82408Y645606D01*
X82458Y645692D01*
X82512Y645776D01*
X82569Y645858D01*
X82629Y645937D01*
X82693Y646015D01*
X82759Y646089D01*
X82828Y646161D01*
X82900Y646230D01*
X82974Y646296D01*
X83052Y646360D01*
X83131Y646420D01*
X83213Y646477D01*
X83297Y646531D01*
X83383Y646581D01*
X83471Y646628D01*
X83561Y646672D01*
X83652Y646712D01*
X83745Y646748D01*
X83839Y646781D01*
X83935Y646810D01*
X84031Y646835D01*
X84128Y646856D01*
X84227Y646874D01*
X84325Y646887D01*
X84425Y646897D01*
X84524Y646903D01*
X84624Y646905D01*
X84724Y646903D01*
X84823Y646897D01*
X84923Y646887D01*
X85021Y646874D01*
X85120Y646856D01*
X85217Y646835D01*
X85313Y646810D01*
X85409Y646781D01*
X85503Y646748D01*
X85596Y646712D01*
X85687Y646672D01*
X85777Y646628D01*
X85865Y646581D01*
X85951Y646531D01*
X86035Y646477D01*
X86117Y646420D01*
X86196Y646360D01*
X86274Y646296D01*
X86348Y646230D01*
X86420Y646161D01*
X86489Y646089D01*
X86555Y646015D01*
X86619Y645937D01*
X86679Y645858D01*
X86736Y645776D01*
X86790Y645692D01*
X86840Y645606D01*
X86887Y645518D01*
X86931Y645428D01*
X86971Y645337D01*
X87007Y645244D01*
X87040Y645150D01*
X87069Y645054D01*
X87094Y644958D01*
X87115Y644861D01*
X87133Y644762D01*
X87146Y644664D01*
X87156Y644564D01*
X87162Y644465D01*
X87164Y644365D01*
X87164Y643095D01*
X82084Y643095D01*
X92942Y643730D02*
X96117Y642460D01*
X92943Y643731D02*
X92869Y643762D01*
X92797Y643797D01*
X92727Y643836D01*
X92658Y643878D01*
X92592Y643923D01*
X92528Y643972D01*
X92467Y644023D01*
X92408Y644077D01*
X92352Y644135D01*
X92299Y644194D01*
X92248Y644257D01*
X92201Y644321D01*
X92157Y644388D01*
X92116Y644457D01*
X92079Y644528D01*
X92045Y644601D01*
X92015Y644675D01*
X91988Y644751D01*
X91966Y644828D01*
X91946Y644905D01*
X91931Y644984D01*
X91920Y645063D01*
X91912Y645143D01*
X91908Y645223D01*
X91909Y645303D01*
X91913Y645383D01*
X91921Y645463D01*
X91933Y645542D01*
X91948Y645621D01*
X91968Y645699D01*
X91991Y645775D01*
X92018Y645851D01*
X92049Y645925D01*
X92083Y645997D01*
X92121Y646068D01*
X92162Y646137D01*
X92206Y646204D01*
X92254Y646268D01*
X92304Y646330D01*
X92358Y646390D01*
X92414Y646447D01*
X92474Y646501D01*
X92535Y646552D01*
X92599Y646600D01*
X92666Y646645D01*
X92734Y646686D01*
X92805Y646725D01*
X92877Y646759D01*
X92951Y646790D01*
X93026Y646818D01*
X93103Y646842D01*
X93180Y646862D01*
X93259Y646878D01*
X93338Y646891D01*
X93417Y646899D01*
X93497Y646904D01*
X93578Y646905D01*
X93577Y646904D02*
X93750Y646900D01*
X93924Y646891D01*
X94096Y646878D01*
X94269Y646861D01*
X94441Y646840D01*
X94613Y646815D01*
X94783Y646785D01*
X94954Y646752D01*
X95123Y646714D01*
X95291Y646672D01*
X95458Y646627D01*
X95624Y646577D01*
X95789Y646523D01*
X95953Y646466D01*
X96115Y646404D01*
X96275Y646339D01*
X96434Y646269D01*
X96117Y642459D02*
X96191Y642428D01*
X96263Y642393D01*
X96333Y642354D01*
X96402Y642312D01*
X96468Y642267D01*
X96532Y642218D01*
X96593Y642167D01*
X96652Y642113D01*
X96708Y642055D01*
X96761Y641996D01*
X96812Y641933D01*
X96859Y641869D01*
X96903Y641802D01*
X96944Y641733D01*
X96981Y641662D01*
X97015Y641589D01*
X97045Y641515D01*
X97072Y641439D01*
X97094Y641362D01*
X97114Y641285D01*
X97129Y641206D01*
X97140Y641127D01*
X97148Y641047D01*
X97152Y640967D01*
X97151Y640887D01*
X97147Y640807D01*
X97139Y640727D01*
X97127Y640648D01*
X97112Y640569D01*
X97092Y640491D01*
X97069Y640415D01*
X97042Y640339D01*
X97011Y640265D01*
X96977Y640193D01*
X96939Y640122D01*
X96898Y640053D01*
X96854Y639986D01*
X96806Y639922D01*
X96756Y639860D01*
X96702Y639800D01*
X96646Y639743D01*
X96586Y639689D01*
X96525Y639638D01*
X96461Y639590D01*
X96394Y639545D01*
X96326Y639504D01*
X96255Y639465D01*
X96183Y639431D01*
X96109Y639400D01*
X96034Y639372D01*
X95957Y639348D01*
X95880Y639328D01*
X95801Y639312D01*
X95722Y639299D01*
X95643Y639291D01*
X95563Y639286D01*
X95482Y639285D01*
X95482Y639284D02*
X95227Y639291D01*
X94973Y639303D01*
X94719Y639322D01*
X94465Y639347D01*
X94213Y639377D01*
X93961Y639414D01*
X93709Y639457D01*
X93459Y639505D01*
X93211Y639560D01*
X92963Y639620D01*
X92717Y639686D01*
X92473Y639758D01*
X92230Y639836D01*
X91989Y639919D01*
X103801Y639285D02*
X106976Y639285D01*
X103801Y639285D02*
X103716Y639287D01*
X103630Y639293D01*
X103545Y639302D01*
X103461Y639316D01*
X103377Y639333D01*
X103294Y639354D01*
X103212Y639378D01*
X103132Y639406D01*
X103052Y639438D01*
X102974Y639474D01*
X102898Y639512D01*
X102824Y639555D01*
X102752Y639600D01*
X102681Y639649D01*
X102613Y639701D01*
X102548Y639755D01*
X102485Y639813D01*
X102424Y639874D01*
X102366Y639937D01*
X102312Y640002D01*
X102260Y640070D01*
X102211Y640141D01*
X102166Y640213D01*
X102123Y640287D01*
X102085Y640363D01*
X102049Y640441D01*
X102017Y640521D01*
X101989Y640601D01*
X101965Y640683D01*
X101944Y640766D01*
X101927Y640850D01*
X101913Y640934D01*
X101904Y641019D01*
X101898Y641105D01*
X101896Y641190D01*
X101896Y644365D01*
X101898Y644465D01*
X101904Y644564D01*
X101914Y644664D01*
X101927Y644762D01*
X101945Y644861D01*
X101966Y644958D01*
X101991Y645054D01*
X102020Y645150D01*
X102053Y645244D01*
X102089Y645337D01*
X102129Y645428D01*
X102173Y645518D01*
X102220Y645606D01*
X102270Y645692D01*
X102324Y645776D01*
X102381Y645858D01*
X102441Y645937D01*
X102505Y646015D01*
X102571Y646089D01*
X102640Y646161D01*
X102712Y646230D01*
X102786Y646296D01*
X102864Y646360D01*
X102943Y646420D01*
X103025Y646477D01*
X103109Y646531D01*
X103195Y646581D01*
X103283Y646628D01*
X103373Y646672D01*
X103464Y646712D01*
X103557Y646748D01*
X103651Y646781D01*
X103747Y646810D01*
X103843Y646835D01*
X103940Y646856D01*
X104039Y646874D01*
X104137Y646887D01*
X104237Y646897D01*
X104336Y646903D01*
X104436Y646905D01*
X104536Y646903D01*
X104635Y646897D01*
X104735Y646887D01*
X104833Y646874D01*
X104932Y646856D01*
X105029Y646835D01*
X105125Y646810D01*
X105221Y646781D01*
X105315Y646748D01*
X105408Y646712D01*
X105499Y646672D01*
X105589Y646628D01*
X105677Y646581D01*
X105763Y646531D01*
X105847Y646477D01*
X105929Y646420D01*
X106008Y646360D01*
X106086Y646296D01*
X106160Y646230D01*
X106232Y646161D01*
X106301Y646089D01*
X106367Y646015D01*
X106431Y645937D01*
X106491Y645858D01*
X106548Y645776D01*
X106602Y645692D01*
X106652Y645606D01*
X106699Y645518D01*
X106743Y645428D01*
X106783Y645337D01*
X106819Y645244D01*
X106852Y645150D01*
X106881Y645054D01*
X106906Y644958D01*
X106927Y644861D01*
X106945Y644762D01*
X106958Y644664D01*
X106968Y644564D01*
X106974Y644465D01*
X106976Y644365D01*
X106976Y643095D01*
X101896Y643095D01*
X110809Y646905D02*
X114619Y646905D01*
X112079Y650715D02*
X112079Y641190D01*
X112081Y641105D01*
X112087Y641019D01*
X112096Y640934D01*
X112110Y640850D01*
X112127Y640766D01*
X112148Y640683D01*
X112172Y640601D01*
X112200Y640521D01*
X112232Y640441D01*
X112268Y640363D01*
X112306Y640287D01*
X112349Y640213D01*
X112394Y640141D01*
X112443Y640070D01*
X112495Y640002D01*
X112549Y639937D01*
X112607Y639874D01*
X112668Y639813D01*
X112731Y639755D01*
X112796Y639701D01*
X112864Y639649D01*
X112935Y639600D01*
X113007Y639555D01*
X113081Y639512D01*
X113157Y639474D01*
X113235Y639438D01*
X113315Y639406D01*
X113395Y639378D01*
X113477Y639354D01*
X113560Y639333D01*
X113644Y639316D01*
X113728Y639302D01*
X113813Y639293D01*
X113899Y639287D01*
X113984Y639285D01*
X114619Y639285D01*
D11*
X45339Y633719D02*
X45339Y632893D01*
X45339Y633719D02*
X49471Y633719D01*
X47405Y626281D01*
X52719Y626281D02*
X55198Y626281D01*
X55279Y626283D01*
X55360Y626289D01*
X55441Y626299D01*
X55520Y626313D01*
X55600Y626331D01*
X55678Y626352D01*
X55755Y626378D01*
X55831Y626407D01*
X55905Y626440D01*
X55977Y626476D01*
X56048Y626516D01*
X56116Y626560D01*
X56183Y626606D01*
X56247Y626656D01*
X56308Y626709D01*
X56367Y626765D01*
X56423Y626824D01*
X56476Y626885D01*
X56526Y626949D01*
X56572Y627016D01*
X56616Y627084D01*
X56656Y627155D01*
X56692Y627227D01*
X56725Y627301D01*
X56754Y627377D01*
X56780Y627454D01*
X56801Y627532D01*
X56819Y627611D01*
X56833Y627691D01*
X56843Y627772D01*
X56849Y627853D01*
X56851Y627934D01*
X56851Y628760D01*
X56849Y628839D01*
X56844Y628917D01*
X56834Y628995D01*
X56821Y629073D01*
X56804Y629150D01*
X56784Y629226D01*
X56760Y629301D01*
X56733Y629374D01*
X56702Y629447D01*
X56667Y629517D01*
X56630Y629587D01*
X56589Y629654D01*
X56544Y629719D01*
X56497Y629782D01*
X56447Y629842D01*
X56394Y629901D01*
X56339Y629956D01*
X56280Y630009D01*
X56220Y630059D01*
X56157Y630106D01*
X56092Y630151D01*
X56025Y630192D01*
X55955Y630229D01*
X55885Y630264D01*
X55812Y630295D01*
X55739Y630322D01*
X55664Y630346D01*
X55588Y630366D01*
X55511Y630383D01*
X55433Y630396D01*
X55355Y630406D01*
X55277Y630411D01*
X55198Y630413D01*
X52719Y630413D01*
X52719Y633719D01*
X56851Y633719D01*
X60719Y632686D02*
X60653Y632546D01*
X60591Y632405D01*
X60532Y632262D01*
X60477Y632118D01*
X60425Y631972D01*
X60377Y631826D01*
X60333Y631677D01*
X60293Y631528D01*
X60256Y631378D01*
X60223Y631227D01*
X60194Y631076D01*
X60169Y630923D01*
X60148Y630770D01*
X60130Y630617D01*
X60117Y630463D01*
X60107Y630309D01*
X60101Y630154D01*
X60099Y630000D01*
X60719Y632686D02*
X60745Y632757D01*
X60775Y632827D01*
X60808Y632895D01*
X60845Y632961D01*
X60885Y633026D01*
X60928Y633088D01*
X60974Y633149D01*
X61023Y633207D01*
X61075Y633262D01*
X61129Y633315D01*
X61186Y633365D01*
X61246Y633412D01*
X61307Y633456D01*
X61371Y633497D01*
X61437Y633535D01*
X61505Y633569D01*
X61574Y633600D01*
X61645Y633628D01*
X61716Y633652D01*
X61790Y633672D01*
X61864Y633689D01*
X61938Y633702D01*
X62014Y633711D01*
X62089Y633717D01*
X62165Y633719D01*
X62241Y633717D01*
X62316Y633711D01*
X62392Y633702D01*
X62466Y633689D01*
X62540Y633672D01*
X62614Y633652D01*
X62685Y633628D01*
X62756Y633600D01*
X62825Y633569D01*
X62893Y633535D01*
X62959Y633497D01*
X63023Y633456D01*
X63084Y633412D01*
X63144Y633365D01*
X63201Y633315D01*
X63255Y633262D01*
X63307Y633207D01*
X63356Y633149D01*
X63402Y633088D01*
X63445Y633026D01*
X63485Y632961D01*
X63522Y632895D01*
X63555Y632827D01*
X63585Y632757D01*
X63611Y632686D01*
X63677Y632546D01*
X63740Y632405D01*
X63798Y632262D01*
X63853Y632118D01*
X63905Y631972D01*
X63953Y631825D01*
X63997Y631677D01*
X64037Y631528D01*
X64074Y631378D01*
X64107Y631227D01*
X64136Y631076D01*
X64161Y630923D01*
X64182Y630770D01*
X64200Y630617D01*
X64213Y630463D01*
X64223Y630309D01*
X64229Y630154D01*
X64231Y630000D01*
X60099Y630000D02*
X60101Y629846D01*
X60107Y629691D01*
X60117Y629537D01*
X60130Y629383D01*
X60148Y629230D01*
X60169Y629077D01*
X60194Y628924D01*
X60223Y628773D01*
X60256Y628622D01*
X60293Y628472D01*
X60333Y628323D01*
X60377Y628175D01*
X60425Y628028D01*
X60477Y627882D01*
X60532Y627738D01*
X60591Y627595D01*
X60653Y627454D01*
X60719Y627314D01*
X60745Y627243D01*
X60775Y627173D01*
X60808Y627105D01*
X60845Y627039D01*
X60885Y626974D01*
X60928Y626912D01*
X60974Y626851D01*
X61023Y626793D01*
X61075Y626738D01*
X61129Y626685D01*
X61186Y626635D01*
X61246Y626588D01*
X61307Y626544D01*
X61371Y626503D01*
X61437Y626465D01*
X61505Y626431D01*
X61574Y626400D01*
X61645Y626372D01*
X61716Y626348D01*
X61790Y626328D01*
X61864Y626311D01*
X61938Y626298D01*
X62014Y626289D01*
X62089Y626283D01*
X62165Y626281D01*
X63612Y627314D02*
X63678Y627454D01*
X63740Y627595D01*
X63799Y627738D01*
X63854Y627882D01*
X63906Y628028D01*
X63954Y628174D01*
X63998Y628322D01*
X64038Y628472D01*
X64075Y628622D01*
X64108Y628773D01*
X64137Y628924D01*
X64162Y629077D01*
X64183Y629230D01*
X64201Y629383D01*
X64214Y629537D01*
X64224Y629691D01*
X64230Y629846D01*
X64232Y630000D01*
X63611Y627314D02*
X63585Y627243D01*
X63555Y627173D01*
X63522Y627105D01*
X63485Y627039D01*
X63445Y626974D01*
X63402Y626912D01*
X63356Y626851D01*
X63307Y626793D01*
X63255Y626738D01*
X63201Y626685D01*
X63144Y626635D01*
X63084Y626588D01*
X63023Y626544D01*
X62959Y626503D01*
X62893Y626465D01*
X62825Y626431D01*
X62756Y626400D01*
X62685Y626372D01*
X62614Y626348D01*
X62540Y626328D01*
X62466Y626311D01*
X62392Y626298D01*
X62316Y626289D01*
X62241Y626283D01*
X62165Y626281D01*
X60512Y627934D02*
X63818Y632066D01*
X67066Y626281D02*
X72024Y633719D01*
X67066Y633719D02*
X72024Y626281D01*
X79260Y628347D02*
X79260Y631653D01*
X79262Y631743D01*
X79268Y631833D01*
X79278Y631923D01*
X79291Y632012D01*
X79309Y632100D01*
X79330Y632188D01*
X79356Y632274D01*
X79385Y632360D01*
X79417Y632444D01*
X79454Y632526D01*
X79493Y632607D01*
X79537Y632686D01*
X79584Y632763D01*
X79634Y632838D01*
X79687Y632911D01*
X79743Y632981D01*
X79803Y633049D01*
X79865Y633114D01*
X79930Y633176D01*
X79998Y633236D01*
X80068Y633292D01*
X80141Y633345D01*
X80216Y633395D01*
X80293Y633442D01*
X80372Y633486D01*
X80453Y633525D01*
X80535Y633562D01*
X80619Y633594D01*
X80705Y633623D01*
X80791Y633649D01*
X80879Y633670D01*
X80967Y633688D01*
X81056Y633701D01*
X81146Y633711D01*
X81236Y633717D01*
X81326Y633719D01*
X81416Y633717D01*
X81506Y633711D01*
X81596Y633701D01*
X81685Y633688D01*
X81773Y633670D01*
X81861Y633649D01*
X81947Y633623D01*
X82033Y633594D01*
X82117Y633562D01*
X82199Y633525D01*
X82280Y633486D01*
X82359Y633442D01*
X82436Y633395D01*
X82511Y633345D01*
X82584Y633292D01*
X82654Y633236D01*
X82722Y633176D01*
X82787Y633114D01*
X82849Y633049D01*
X82909Y632981D01*
X82965Y632911D01*
X83018Y632838D01*
X83068Y632763D01*
X83115Y632686D01*
X83159Y632607D01*
X83198Y632526D01*
X83235Y632444D01*
X83267Y632360D01*
X83296Y632274D01*
X83322Y632188D01*
X83343Y632100D01*
X83361Y632012D01*
X83374Y631923D01*
X83384Y631833D01*
X83390Y631743D01*
X83392Y631653D01*
X83393Y631653D02*
X83393Y628347D01*
X83392Y628347D02*
X83390Y628257D01*
X83384Y628167D01*
X83374Y628077D01*
X83361Y627988D01*
X83343Y627900D01*
X83322Y627812D01*
X83296Y627726D01*
X83267Y627640D01*
X83235Y627556D01*
X83198Y627474D01*
X83159Y627393D01*
X83115Y627314D01*
X83068Y627237D01*
X83018Y627162D01*
X82965Y627089D01*
X82909Y627019D01*
X82849Y626951D01*
X82787Y626886D01*
X82722Y626824D01*
X82654Y626764D01*
X82584Y626708D01*
X82511Y626655D01*
X82436Y626605D01*
X82359Y626558D01*
X82280Y626514D01*
X82199Y626475D01*
X82117Y626438D01*
X82033Y626406D01*
X81947Y626377D01*
X81861Y626351D01*
X81773Y626330D01*
X81685Y626312D01*
X81596Y626299D01*
X81506Y626289D01*
X81416Y626283D01*
X81326Y626281D01*
X81236Y626283D01*
X81146Y626289D01*
X81056Y626299D01*
X80967Y626312D01*
X80879Y626330D01*
X80791Y626351D01*
X80705Y626377D01*
X80619Y626406D01*
X80535Y626438D01*
X80453Y626475D01*
X80372Y626514D01*
X80293Y626558D01*
X80216Y626605D01*
X80141Y626655D01*
X80068Y626708D01*
X79998Y626764D01*
X79930Y626824D01*
X79865Y626886D01*
X79803Y626951D01*
X79743Y627019D01*
X79687Y627089D01*
X79634Y627162D01*
X79584Y627237D01*
X79537Y627314D01*
X79493Y627393D01*
X79454Y627474D01*
X79417Y627556D01*
X79385Y627640D01*
X79356Y627726D01*
X79330Y627812D01*
X79309Y627900D01*
X79291Y627988D01*
X79278Y628077D01*
X79268Y628167D01*
X79262Y628257D01*
X79260Y628347D01*
X82566Y627934D02*
X84219Y626281D01*
X88654Y626281D02*
X88733Y626283D01*
X88811Y626288D01*
X88889Y626298D01*
X88967Y626311D01*
X89044Y626328D01*
X89120Y626348D01*
X89195Y626372D01*
X89268Y626399D01*
X89341Y626430D01*
X89411Y626465D01*
X89481Y626502D01*
X89548Y626543D01*
X89613Y626588D01*
X89676Y626635D01*
X89736Y626685D01*
X89795Y626738D01*
X89850Y626793D01*
X89903Y626852D01*
X89953Y626912D01*
X90000Y626975D01*
X90045Y627040D01*
X90086Y627108D01*
X90123Y627177D01*
X90158Y627247D01*
X90189Y627320D01*
X90216Y627393D01*
X90240Y627468D01*
X90260Y627544D01*
X90277Y627621D01*
X90290Y627699D01*
X90300Y627777D01*
X90305Y627855D01*
X90307Y627934D01*
X88654Y626281D02*
X88539Y626283D01*
X88424Y626289D01*
X88310Y626298D01*
X88196Y626311D01*
X88082Y626328D01*
X87969Y626349D01*
X87857Y626373D01*
X87746Y626401D01*
X87635Y626433D01*
X87526Y626468D01*
X87418Y626507D01*
X87311Y626550D01*
X87206Y626596D01*
X87102Y626645D01*
X87000Y626698D01*
X86900Y626754D01*
X86801Y626813D01*
X86705Y626876D01*
X86611Y626941D01*
X86519Y627010D01*
X86429Y627082D01*
X86342Y627156D01*
X86257Y627234D01*
X86174Y627314D01*
X86381Y632066D02*
X86383Y632145D01*
X86388Y632223D01*
X86398Y632301D01*
X86411Y632379D01*
X86428Y632456D01*
X86448Y632532D01*
X86472Y632607D01*
X86499Y632680D01*
X86530Y632753D01*
X86565Y632823D01*
X86602Y632893D01*
X86643Y632960D01*
X86688Y633025D01*
X86735Y633088D01*
X86785Y633148D01*
X86838Y633207D01*
X86893Y633262D01*
X86952Y633315D01*
X87012Y633365D01*
X87075Y633413D01*
X87140Y633457D01*
X87208Y633498D01*
X87277Y633535D01*
X87347Y633570D01*
X87420Y633601D01*
X87493Y633628D01*
X87568Y633652D01*
X87644Y633672D01*
X87721Y633689D01*
X87799Y633702D01*
X87877Y633712D01*
X87955Y633717D01*
X88034Y633719D01*
X88145Y633717D01*
X88255Y633711D01*
X88366Y633701D01*
X88476Y633687D01*
X88585Y633670D01*
X88694Y633648D01*
X88801Y633622D01*
X88908Y633593D01*
X89014Y633560D01*
X89118Y633523D01*
X89222Y633482D01*
X89323Y633438D01*
X89423Y633390D01*
X89521Y633339D01*
X89617Y633284D01*
X89712Y633226D01*
X89804Y633164D01*
X89893Y633099D01*
X87208Y630619D02*
X87140Y630661D01*
X87075Y630706D01*
X87012Y630754D01*
X86951Y630805D01*
X86893Y630859D01*
X86837Y630915D01*
X86784Y630974D01*
X86734Y631036D01*
X86687Y631099D01*
X86643Y631165D01*
X86602Y631233D01*
X86565Y631303D01*
X86530Y631374D01*
X86499Y631447D01*
X86472Y631521D01*
X86448Y631597D01*
X86428Y631673D01*
X86411Y631751D01*
X86398Y631829D01*
X86388Y631908D01*
X86383Y631987D01*
X86381Y632066D01*
X89480Y629381D02*
X89548Y629339D01*
X89613Y629294D01*
X89676Y629246D01*
X89737Y629195D01*
X89795Y629141D01*
X89851Y629085D01*
X89904Y629026D01*
X89954Y628964D01*
X90001Y628901D01*
X90045Y628835D01*
X90086Y628767D01*
X90123Y628697D01*
X90158Y628626D01*
X90189Y628553D01*
X90216Y628479D01*
X90240Y628403D01*
X90260Y628327D01*
X90277Y628249D01*
X90290Y628171D01*
X90300Y628092D01*
X90305Y628013D01*
X90307Y627934D01*
X89481Y629380D02*
X87208Y630620D01*
X93673Y630413D02*
X95739Y630413D01*
X95829Y630411D01*
X95919Y630405D01*
X96009Y630395D01*
X96098Y630382D01*
X96186Y630364D01*
X96274Y630343D01*
X96360Y630317D01*
X96446Y630288D01*
X96530Y630256D01*
X96612Y630219D01*
X96693Y630180D01*
X96772Y630136D01*
X96849Y630089D01*
X96924Y630039D01*
X96997Y629986D01*
X97067Y629930D01*
X97135Y629870D01*
X97200Y629808D01*
X97262Y629743D01*
X97322Y629675D01*
X97378Y629605D01*
X97431Y629532D01*
X97481Y629457D01*
X97528Y629380D01*
X97572Y629301D01*
X97611Y629220D01*
X97648Y629138D01*
X97680Y629054D01*
X97709Y628968D01*
X97735Y628882D01*
X97756Y628794D01*
X97774Y628706D01*
X97787Y628617D01*
X97797Y628527D01*
X97803Y628437D01*
X97805Y628347D01*
X97803Y628257D01*
X97797Y628167D01*
X97787Y628077D01*
X97774Y627988D01*
X97756Y627900D01*
X97735Y627812D01*
X97709Y627726D01*
X97680Y627640D01*
X97648Y627556D01*
X97611Y627474D01*
X97572Y627393D01*
X97528Y627314D01*
X97481Y627237D01*
X97431Y627162D01*
X97378Y627089D01*
X97322Y627019D01*
X97262Y626951D01*
X97200Y626886D01*
X97135Y626824D01*
X97067Y626764D01*
X96997Y626708D01*
X96924Y626655D01*
X96849Y626605D01*
X96772Y626558D01*
X96693Y626514D01*
X96612Y626475D01*
X96530Y626438D01*
X96446Y626406D01*
X96360Y626377D01*
X96274Y626351D01*
X96186Y626330D01*
X96098Y626312D01*
X96009Y626299D01*
X95919Y626289D01*
X95829Y626283D01*
X95739Y626281D01*
X93673Y626281D01*
X93673Y633719D01*
X95739Y633719D01*
X95819Y633717D01*
X95899Y633711D01*
X95978Y633702D01*
X96057Y633688D01*
X96135Y633671D01*
X96212Y633650D01*
X96288Y633625D01*
X96362Y633597D01*
X96436Y633565D01*
X96507Y633530D01*
X96577Y633491D01*
X96645Y633449D01*
X96711Y633403D01*
X96774Y633355D01*
X96835Y633303D01*
X96894Y633249D01*
X96949Y633192D01*
X97002Y633132D01*
X97052Y633070D01*
X97099Y633005D01*
X97143Y632938D01*
X97184Y632869D01*
X97221Y632799D01*
X97254Y632726D01*
X97285Y632652D01*
X97311Y632577D01*
X97334Y632500D01*
X97353Y632423D01*
X97368Y632344D01*
X97380Y632265D01*
X97388Y632186D01*
X97392Y632106D01*
X97392Y632026D01*
X97388Y631946D01*
X97380Y631867D01*
X97368Y631788D01*
X97353Y631709D01*
X97334Y631632D01*
X97311Y631555D01*
X97285Y631480D01*
X97254Y631406D01*
X97221Y631333D01*
X97184Y631263D01*
X97143Y631194D01*
X97099Y631127D01*
X97052Y631062D01*
X97002Y631000D01*
X96949Y630940D01*
X96894Y630883D01*
X96835Y630829D01*
X96774Y630777D01*
X96711Y630729D01*
X96645Y630683D01*
X96577Y630641D01*
X96507Y630602D01*
X96436Y630567D01*
X96362Y630535D01*
X96288Y630507D01*
X96212Y630482D01*
X96135Y630461D01*
X96057Y630444D01*
X95978Y630430D01*
X95899Y630421D01*
X95819Y630415D01*
X95739Y630413D01*
X104300Y631240D02*
X105953Y626281D01*
X107606Y631240D01*
X110529Y632066D02*
X112595Y633719D01*
X112595Y626281D01*
X110529Y626281D02*
X114661Y626281D01*
D12*
X130000Y355000D02*
X175000Y355000D01*
X175000Y315000D02*
X130000Y315000D01*
D10*
X124450Y538450D02*
X124450Y593060D01*
X35550Y576550D02*
X35550Y538450D01*
M02*
