G04 EAGLE Gerber RS-274X export*
G75*
%MOMM*%
%FSLAX34Y34*%
%LPD*%
%INSilkscreen Bottom*%
%IPPOS*%
%AMOC8*
5,1,8,0,0,1.08239X$1,22.5*%
G01*
%ADD10C,0.203200*%
%ADD11C,0.076200*%
%ADD12R,5.000000X14.000000*%


D10*
X113316Y726391D02*
X123984Y726391D01*
X123984Y729354D01*
X123982Y729461D01*
X123976Y729568D01*
X123967Y729674D01*
X123953Y729780D01*
X123936Y729886D01*
X123915Y729991D01*
X123890Y730095D01*
X123861Y730198D01*
X123829Y730300D01*
X123793Y730401D01*
X123753Y730500D01*
X123710Y730598D01*
X123663Y730694D01*
X123613Y730789D01*
X123560Y730882D01*
X123503Y730972D01*
X123443Y731061D01*
X123380Y731147D01*
X123314Y731231D01*
X123244Y731313D01*
X123172Y731392D01*
X123097Y731468D01*
X123019Y731542D01*
X122939Y731612D01*
X122856Y731680D01*
X122771Y731745D01*
X122684Y731806D01*
X122594Y731865D01*
X122503Y731920D01*
X122409Y731972D01*
X122313Y732020D01*
X122216Y732065D01*
X122118Y732107D01*
X122018Y732144D01*
X121916Y732179D01*
X121814Y732209D01*
X121710Y732236D01*
X121606Y732259D01*
X121500Y732278D01*
X121394Y732293D01*
X121288Y732305D01*
X121181Y732313D01*
X121074Y732317D01*
X120968Y732317D01*
X120861Y732313D01*
X120754Y732305D01*
X120648Y732293D01*
X120542Y732278D01*
X120436Y732259D01*
X120332Y732236D01*
X120228Y732209D01*
X120126Y732179D01*
X120024Y732144D01*
X119924Y732107D01*
X119826Y732065D01*
X119729Y732020D01*
X119633Y731972D01*
X119540Y731920D01*
X119448Y731865D01*
X119358Y731806D01*
X119271Y731745D01*
X119186Y731680D01*
X119103Y731612D01*
X119023Y731542D01*
X118945Y731468D01*
X118870Y731392D01*
X118798Y731313D01*
X118728Y731231D01*
X118662Y731147D01*
X118599Y731061D01*
X118539Y730972D01*
X118482Y730882D01*
X118429Y730789D01*
X118379Y730694D01*
X118332Y730598D01*
X118289Y730500D01*
X118249Y730401D01*
X118213Y730300D01*
X118181Y730198D01*
X118152Y730095D01*
X118127Y729991D01*
X118106Y729886D01*
X118089Y729780D01*
X118075Y729674D01*
X118066Y729568D01*
X118060Y729461D01*
X118058Y729354D01*
X118057Y729354D02*
X118057Y726391D01*
X113316Y740361D02*
X113318Y740457D01*
X113324Y740552D01*
X113333Y740647D01*
X113347Y740741D01*
X113364Y740835D01*
X113385Y740928D01*
X113410Y741021D01*
X113438Y741112D01*
X113470Y741202D01*
X113506Y741290D01*
X113545Y741377D01*
X113588Y741463D01*
X113634Y741547D01*
X113683Y741628D01*
X113736Y741708D01*
X113792Y741785D01*
X113850Y741861D01*
X113912Y741933D01*
X113977Y742003D01*
X114045Y742071D01*
X114115Y742136D01*
X114187Y742198D01*
X114263Y742256D01*
X114340Y742312D01*
X114420Y742365D01*
X114502Y742414D01*
X114585Y742460D01*
X114671Y742503D01*
X114758Y742542D01*
X114846Y742578D01*
X114936Y742610D01*
X115027Y742638D01*
X115120Y742663D01*
X115213Y742684D01*
X115307Y742701D01*
X115401Y742715D01*
X115496Y742724D01*
X115592Y742730D01*
X115687Y742732D01*
X113316Y740361D02*
X113318Y740225D01*
X113323Y740088D01*
X113333Y739952D01*
X113346Y739817D01*
X113362Y739681D01*
X113383Y739547D01*
X113407Y739412D01*
X113434Y739279D01*
X113466Y739146D01*
X113500Y739014D01*
X113539Y738883D01*
X113581Y738754D01*
X113626Y738625D01*
X113675Y738498D01*
X113728Y738372D01*
X113784Y738248D01*
X113843Y738125D01*
X113905Y738004D01*
X113971Y737884D01*
X114040Y737767D01*
X114113Y737651D01*
X114188Y737537D01*
X114266Y737426D01*
X114348Y737316D01*
X114432Y737209D01*
X114519Y737105D01*
X114609Y737002D01*
X114702Y736902D01*
X114798Y736805D01*
X121613Y737101D02*
X121708Y737103D01*
X121804Y737109D01*
X121899Y737118D01*
X121993Y737132D01*
X122087Y737149D01*
X122180Y737170D01*
X122273Y737195D01*
X122364Y737223D01*
X122454Y737255D01*
X122542Y737291D01*
X122629Y737330D01*
X122715Y737373D01*
X122799Y737419D01*
X122880Y737468D01*
X122960Y737521D01*
X123037Y737577D01*
X123113Y737635D01*
X123185Y737697D01*
X123255Y737762D01*
X123323Y737830D01*
X123388Y737900D01*
X123450Y737972D01*
X123508Y738048D01*
X123564Y738125D01*
X123617Y738205D01*
X123666Y738287D01*
X123712Y738370D01*
X123755Y738456D01*
X123794Y738543D01*
X123830Y738631D01*
X123862Y738721D01*
X123890Y738812D01*
X123915Y738905D01*
X123936Y738998D01*
X123953Y739092D01*
X123967Y739186D01*
X123976Y739281D01*
X123982Y739377D01*
X123984Y739472D01*
X123982Y739602D01*
X123976Y739732D01*
X123967Y739862D01*
X123954Y739991D01*
X123937Y740120D01*
X123916Y740248D01*
X123891Y740376D01*
X123863Y740503D01*
X123831Y740629D01*
X123795Y740754D01*
X123756Y740878D01*
X123713Y741000D01*
X123667Y741122D01*
X123616Y741242D01*
X123563Y741360D01*
X123506Y741477D01*
X123446Y741592D01*
X123382Y741706D01*
X123315Y741817D01*
X123245Y741927D01*
X123171Y742034D01*
X123095Y742139D01*
X119538Y738287D02*
X119589Y738205D01*
X119643Y738125D01*
X119699Y738047D01*
X119759Y737972D01*
X119822Y737899D01*
X119888Y737829D01*
X119956Y737762D01*
X120027Y737697D01*
X120101Y737635D01*
X120177Y737576D01*
X120255Y737520D01*
X120336Y737468D01*
X120418Y737418D01*
X120503Y737372D01*
X120589Y737330D01*
X120677Y737290D01*
X120766Y737255D01*
X120857Y737223D01*
X120949Y737194D01*
X121042Y737170D01*
X121135Y737149D01*
X121230Y737132D01*
X121325Y737118D01*
X121421Y737109D01*
X121517Y737103D01*
X121613Y737101D01*
X117762Y741547D02*
X117711Y741628D01*
X117657Y741708D01*
X117601Y741786D01*
X117541Y741861D01*
X117478Y741934D01*
X117412Y742004D01*
X117344Y742071D01*
X117273Y742136D01*
X117199Y742198D01*
X117123Y742257D01*
X117045Y742313D01*
X116964Y742365D01*
X116882Y742415D01*
X116797Y742461D01*
X116711Y742503D01*
X116623Y742543D01*
X116534Y742578D01*
X116443Y742610D01*
X116351Y742639D01*
X116258Y742663D01*
X116165Y742684D01*
X116070Y742701D01*
X115975Y742715D01*
X115879Y742724D01*
X115783Y742730D01*
X115687Y742732D01*
X117761Y741546D02*
X119539Y738286D01*
X121613Y747854D02*
X123984Y750817D01*
X113316Y750817D01*
X113316Y747854D02*
X113316Y753780D01*
X113316Y764787D02*
X123984Y771899D01*
X123984Y764787D02*
X113316Y771899D01*
X117465Y776979D02*
X117465Y784091D01*
X113316Y790255D02*
X123984Y790255D01*
X123984Y793218D01*
X123982Y793325D01*
X123976Y793432D01*
X123967Y793538D01*
X123953Y793644D01*
X123936Y793750D01*
X123915Y793855D01*
X123890Y793959D01*
X123861Y794062D01*
X123829Y794164D01*
X123793Y794265D01*
X123753Y794364D01*
X123710Y794462D01*
X123663Y794558D01*
X123613Y794653D01*
X123560Y794746D01*
X123503Y794836D01*
X123443Y794925D01*
X123380Y795011D01*
X123314Y795095D01*
X123244Y795177D01*
X123172Y795256D01*
X123097Y795332D01*
X123019Y795406D01*
X122939Y795476D01*
X122856Y795544D01*
X122771Y795609D01*
X122684Y795670D01*
X122594Y795729D01*
X122503Y795784D01*
X122409Y795836D01*
X122313Y795884D01*
X122216Y795929D01*
X122118Y795971D01*
X122018Y796008D01*
X121916Y796043D01*
X121814Y796073D01*
X121710Y796100D01*
X121606Y796123D01*
X121500Y796142D01*
X121394Y796157D01*
X121288Y796169D01*
X121181Y796177D01*
X121074Y796181D01*
X120968Y796181D01*
X120861Y796177D01*
X120754Y796169D01*
X120648Y796157D01*
X120542Y796142D01*
X120436Y796123D01*
X120332Y796100D01*
X120228Y796073D01*
X120126Y796043D01*
X120024Y796008D01*
X119924Y795971D01*
X119826Y795929D01*
X119729Y795884D01*
X119633Y795836D01*
X119540Y795784D01*
X119448Y795729D01*
X119358Y795670D01*
X119271Y795609D01*
X119186Y795544D01*
X119103Y795476D01*
X119023Y795406D01*
X118945Y795332D01*
X118870Y795256D01*
X118798Y795177D01*
X118728Y795095D01*
X118662Y795011D01*
X118599Y794925D01*
X118539Y794836D01*
X118482Y794746D01*
X118429Y794653D01*
X118379Y794558D01*
X118332Y794462D01*
X118289Y794364D01*
X118249Y794265D01*
X118213Y794164D01*
X118181Y794062D01*
X118152Y793959D01*
X118127Y793855D01*
X118106Y793750D01*
X118089Y793644D01*
X118075Y793538D01*
X118066Y793432D01*
X118060Y793325D01*
X118058Y793218D01*
X118057Y793218D02*
X118057Y790255D01*
X118057Y793811D02*
X113316Y796182D01*
X113316Y803183D02*
X113316Y806147D01*
X113316Y803183D02*
X113318Y803101D01*
X113324Y803019D01*
X113333Y802937D01*
X113346Y802856D01*
X113363Y802776D01*
X113384Y802696D01*
X113408Y802618D01*
X113436Y802541D01*
X113467Y802465D01*
X113502Y802390D01*
X113541Y802318D01*
X113582Y802247D01*
X113627Y802178D01*
X113675Y802112D01*
X113726Y802047D01*
X113780Y801985D01*
X113837Y801926D01*
X113896Y801869D01*
X113958Y801815D01*
X114023Y801764D01*
X114089Y801716D01*
X114158Y801671D01*
X114229Y801630D01*
X114301Y801591D01*
X114376Y801556D01*
X114452Y801525D01*
X114529Y801497D01*
X114607Y801473D01*
X114687Y801452D01*
X114767Y801435D01*
X114848Y801422D01*
X114930Y801413D01*
X115012Y801407D01*
X115094Y801405D01*
X118057Y801405D01*
X118154Y801407D01*
X118250Y801413D01*
X118346Y801423D01*
X118442Y801437D01*
X118537Y801454D01*
X118632Y801476D01*
X118725Y801501D01*
X118817Y801530D01*
X118908Y801563D01*
X118998Y801600D01*
X119086Y801640D01*
X119172Y801684D01*
X119256Y801731D01*
X119339Y801781D01*
X119419Y801835D01*
X119497Y801893D01*
X119573Y801953D01*
X119646Y802016D01*
X119716Y802082D01*
X119784Y802152D01*
X119849Y802223D01*
X119911Y802298D01*
X119969Y802375D01*
X120025Y802454D01*
X120077Y802535D01*
X120126Y802619D01*
X120172Y802704D01*
X120214Y802791D01*
X120252Y802880D01*
X120287Y802970D01*
X120318Y803062D01*
X120345Y803155D01*
X120369Y803248D01*
X120388Y803343D01*
X120404Y803439D01*
X120416Y803535D01*
X120424Y803631D01*
X120428Y803728D01*
X120428Y803824D01*
X120424Y803921D01*
X120416Y804017D01*
X120404Y804113D01*
X120388Y804209D01*
X120369Y804304D01*
X120345Y804397D01*
X120318Y804490D01*
X120287Y804582D01*
X120252Y804672D01*
X120214Y804761D01*
X120172Y804848D01*
X120126Y804933D01*
X120077Y805017D01*
X120025Y805098D01*
X119969Y805177D01*
X119911Y805254D01*
X119849Y805329D01*
X119784Y805400D01*
X119716Y805470D01*
X119646Y805536D01*
X119573Y805599D01*
X119497Y805659D01*
X119419Y805717D01*
X119339Y805771D01*
X119256Y805821D01*
X119172Y805868D01*
X119086Y805912D01*
X118998Y805952D01*
X118908Y805989D01*
X118817Y806022D01*
X118725Y806051D01*
X118632Y806076D01*
X118537Y806098D01*
X118442Y806115D01*
X118346Y806129D01*
X118250Y806139D01*
X118154Y806145D01*
X118057Y806147D01*
X116872Y806147D01*
X116872Y801405D01*
X117465Y812200D02*
X116279Y815164D01*
X117464Y812200D02*
X117495Y812129D01*
X117529Y812059D01*
X117566Y811991D01*
X117607Y811926D01*
X117652Y811862D01*
X117699Y811801D01*
X117750Y811742D01*
X117803Y811685D01*
X117859Y811632D01*
X117918Y811581D01*
X117979Y811534D01*
X118043Y811489D01*
X118108Y811448D01*
X118176Y811410D01*
X118246Y811376D01*
X118317Y811345D01*
X118389Y811318D01*
X118463Y811295D01*
X118538Y811275D01*
X118614Y811259D01*
X118691Y811247D01*
X118768Y811239D01*
X118845Y811235D01*
X118923Y811234D01*
X119000Y811238D01*
X119078Y811245D01*
X119154Y811257D01*
X119230Y811272D01*
X119306Y811291D01*
X119380Y811314D01*
X119453Y811340D01*
X119524Y811370D01*
X119594Y811404D01*
X119662Y811441D01*
X119728Y811482D01*
X119792Y811526D01*
X119854Y811573D01*
X119913Y811623D01*
X119969Y811676D01*
X120023Y811732D01*
X120074Y811790D01*
X120122Y811851D01*
X120167Y811914D01*
X120209Y811980D01*
X120247Y812047D01*
X120282Y812117D01*
X120313Y812188D01*
X120341Y812260D01*
X120364Y812334D01*
X120385Y812409D01*
X120401Y812484D01*
X120414Y812561D01*
X120422Y812638D01*
X120427Y812715D01*
X120428Y812793D01*
X120424Y812955D01*
X120416Y813117D01*
X120404Y813278D01*
X120388Y813439D01*
X120368Y813600D01*
X120345Y813760D01*
X120317Y813919D01*
X120286Y814078D01*
X120251Y814236D01*
X120212Y814393D01*
X120169Y814549D01*
X120123Y814704D01*
X120073Y814858D01*
X120019Y815011D01*
X119961Y815162D01*
X119900Y815312D01*
X119836Y815460D01*
X116280Y815164D02*
X116249Y815235D01*
X116215Y815305D01*
X116178Y815373D01*
X116137Y815438D01*
X116092Y815502D01*
X116045Y815563D01*
X115994Y815622D01*
X115941Y815679D01*
X115885Y815732D01*
X115826Y815783D01*
X115765Y815830D01*
X115701Y815875D01*
X115636Y815916D01*
X115568Y815954D01*
X115498Y815988D01*
X115427Y816019D01*
X115355Y816046D01*
X115281Y816069D01*
X115206Y816089D01*
X115130Y816105D01*
X115053Y816117D01*
X114976Y816125D01*
X114899Y816129D01*
X114821Y816130D01*
X114744Y816126D01*
X114666Y816119D01*
X114590Y816107D01*
X114514Y816092D01*
X114438Y816073D01*
X114364Y816050D01*
X114291Y816024D01*
X114220Y815994D01*
X114150Y815960D01*
X114082Y815923D01*
X114016Y815882D01*
X113952Y815838D01*
X113890Y815791D01*
X113831Y815741D01*
X113775Y815688D01*
X113721Y815632D01*
X113670Y815574D01*
X113622Y815513D01*
X113577Y815450D01*
X113535Y815384D01*
X113497Y815317D01*
X113462Y815247D01*
X113431Y815177D01*
X113403Y815104D01*
X113380Y815030D01*
X113359Y814955D01*
X113343Y814880D01*
X113330Y814803D01*
X113322Y814726D01*
X113317Y814649D01*
X113316Y814571D01*
X113316Y814570D02*
X113322Y814333D01*
X113334Y814095D01*
X113351Y813858D01*
X113375Y813622D01*
X113403Y813386D01*
X113437Y813150D01*
X113477Y812916D01*
X113522Y812683D01*
X113573Y812450D01*
X113629Y812219D01*
X113691Y811990D01*
X113758Y811762D01*
X113831Y811535D01*
X113909Y811311D01*
X113316Y822995D02*
X113316Y825959D01*
X113316Y822995D02*
X113318Y822913D01*
X113324Y822831D01*
X113333Y822749D01*
X113346Y822668D01*
X113363Y822588D01*
X113384Y822508D01*
X113408Y822430D01*
X113436Y822353D01*
X113467Y822277D01*
X113502Y822202D01*
X113541Y822130D01*
X113582Y822059D01*
X113627Y821990D01*
X113675Y821924D01*
X113726Y821859D01*
X113780Y821797D01*
X113837Y821738D01*
X113896Y821681D01*
X113958Y821627D01*
X114023Y821576D01*
X114089Y821528D01*
X114158Y821483D01*
X114229Y821442D01*
X114301Y821403D01*
X114376Y821368D01*
X114452Y821337D01*
X114529Y821309D01*
X114607Y821285D01*
X114687Y821264D01*
X114767Y821247D01*
X114848Y821234D01*
X114930Y821225D01*
X115012Y821219D01*
X115094Y821217D01*
X118057Y821217D01*
X118154Y821219D01*
X118250Y821225D01*
X118346Y821235D01*
X118442Y821249D01*
X118537Y821266D01*
X118632Y821288D01*
X118725Y821313D01*
X118817Y821342D01*
X118908Y821375D01*
X118998Y821412D01*
X119086Y821452D01*
X119172Y821496D01*
X119256Y821543D01*
X119339Y821593D01*
X119419Y821647D01*
X119497Y821705D01*
X119573Y821765D01*
X119646Y821828D01*
X119716Y821894D01*
X119784Y821964D01*
X119849Y822035D01*
X119911Y822110D01*
X119969Y822187D01*
X120025Y822266D01*
X120077Y822347D01*
X120126Y822431D01*
X120172Y822516D01*
X120214Y822603D01*
X120252Y822692D01*
X120287Y822782D01*
X120318Y822874D01*
X120345Y822967D01*
X120369Y823060D01*
X120388Y823155D01*
X120404Y823251D01*
X120416Y823347D01*
X120424Y823443D01*
X120428Y823540D01*
X120428Y823636D01*
X120424Y823733D01*
X120416Y823829D01*
X120404Y823925D01*
X120388Y824021D01*
X120369Y824116D01*
X120345Y824209D01*
X120318Y824302D01*
X120287Y824394D01*
X120252Y824484D01*
X120214Y824573D01*
X120172Y824660D01*
X120126Y824745D01*
X120077Y824829D01*
X120025Y824910D01*
X119969Y824989D01*
X119911Y825066D01*
X119849Y825141D01*
X119784Y825212D01*
X119716Y825282D01*
X119646Y825348D01*
X119573Y825411D01*
X119497Y825471D01*
X119419Y825529D01*
X119339Y825583D01*
X119256Y825633D01*
X119172Y825680D01*
X119086Y825724D01*
X118998Y825764D01*
X118908Y825801D01*
X118817Y825834D01*
X118725Y825863D01*
X118632Y825888D01*
X118537Y825910D01*
X118442Y825927D01*
X118346Y825941D01*
X118250Y825951D01*
X118154Y825957D01*
X118057Y825959D01*
X116872Y825959D01*
X116872Y821217D01*
X120428Y830053D02*
X120428Y833609D01*
X123984Y831239D02*
X115094Y831239D01*
X115012Y831241D01*
X114930Y831247D01*
X114848Y831256D01*
X114767Y831269D01*
X114687Y831286D01*
X114607Y831307D01*
X114529Y831331D01*
X114452Y831359D01*
X114376Y831390D01*
X114301Y831425D01*
X114229Y831464D01*
X114158Y831505D01*
X114089Y831550D01*
X114023Y831598D01*
X113958Y831649D01*
X113896Y831703D01*
X113837Y831760D01*
X113780Y831819D01*
X113726Y831881D01*
X113675Y831946D01*
X113627Y832012D01*
X113582Y832081D01*
X113541Y832152D01*
X113502Y832224D01*
X113467Y832299D01*
X113436Y832375D01*
X113408Y832452D01*
X113384Y832530D01*
X113363Y832610D01*
X113346Y832690D01*
X113333Y832771D01*
X113324Y832853D01*
X113318Y832935D01*
X113316Y833017D01*
X113316Y833609D01*
D11*
X90221Y690657D02*
X90221Y688569D01*
X90223Y688480D01*
X90229Y688392D01*
X90238Y688304D01*
X90251Y688216D01*
X90268Y688129D01*
X90288Y688043D01*
X90313Y687958D01*
X90340Y687873D01*
X90372Y687790D01*
X90406Y687709D01*
X90445Y687629D01*
X90486Y687551D01*
X90531Y687474D01*
X90579Y687400D01*
X90630Y687327D01*
X90684Y687257D01*
X90742Y687190D01*
X90802Y687124D01*
X90864Y687062D01*
X90930Y687002D01*
X90997Y686944D01*
X91067Y686890D01*
X91140Y686839D01*
X91214Y686791D01*
X91291Y686746D01*
X91369Y686705D01*
X91449Y686666D01*
X91530Y686632D01*
X91613Y686600D01*
X91698Y686573D01*
X91783Y686548D01*
X91869Y686528D01*
X91956Y686511D01*
X92044Y686498D01*
X92132Y686489D01*
X92220Y686483D01*
X92309Y686481D01*
X92309Y686480D02*
X97531Y686480D01*
X97531Y686481D02*
X97622Y686483D01*
X97713Y686489D01*
X97804Y686499D01*
X97894Y686513D01*
X97983Y686530D01*
X98071Y686552D01*
X98159Y686578D01*
X98245Y686607D01*
X98330Y686640D01*
X98413Y686677D01*
X98495Y686717D01*
X98575Y686761D01*
X98653Y686808D01*
X98729Y686859D01*
X98802Y686912D01*
X98873Y686969D01*
X98942Y687030D01*
X99007Y687093D01*
X99070Y687158D01*
X99130Y687227D01*
X99188Y687298D01*
X99241Y687371D01*
X99292Y687447D01*
X99339Y687525D01*
X99383Y687605D01*
X99423Y687687D01*
X99460Y687770D01*
X99493Y687855D01*
X99522Y687941D01*
X99548Y688029D01*
X99570Y688117D01*
X99587Y688206D01*
X99601Y688296D01*
X99611Y688387D01*
X99617Y688478D01*
X99619Y688569D01*
X99619Y690657D01*
X94398Y694038D02*
X92309Y694038D01*
X94398Y694039D02*
X94488Y694041D01*
X94577Y694047D01*
X94667Y694056D01*
X94756Y694070D01*
X94844Y694087D01*
X94931Y694108D01*
X95018Y694133D01*
X95103Y694162D01*
X95187Y694194D01*
X95269Y694229D01*
X95350Y694269D01*
X95429Y694311D01*
X95506Y694357D01*
X95581Y694407D01*
X95654Y694459D01*
X95725Y694515D01*
X95793Y694573D01*
X95858Y694635D01*
X95921Y694699D01*
X95981Y694766D01*
X96038Y694835D01*
X96092Y694907D01*
X96143Y694981D01*
X96191Y695057D01*
X96235Y695135D01*
X96276Y695215D01*
X96314Y695297D01*
X96348Y695380D01*
X96378Y695465D01*
X96405Y695551D01*
X96428Y695637D01*
X96447Y695725D01*
X96462Y695814D01*
X96474Y695903D01*
X96482Y695992D01*
X96486Y696082D01*
X96486Y696172D01*
X96482Y696262D01*
X96474Y696351D01*
X96462Y696440D01*
X96447Y696529D01*
X96428Y696617D01*
X96405Y696703D01*
X96378Y696789D01*
X96348Y696874D01*
X96314Y696957D01*
X96276Y697039D01*
X96235Y697119D01*
X96191Y697197D01*
X96143Y697273D01*
X96092Y697347D01*
X96038Y697419D01*
X95981Y697488D01*
X95921Y697555D01*
X95858Y697619D01*
X95793Y697681D01*
X95725Y697739D01*
X95654Y697795D01*
X95581Y697847D01*
X95506Y697897D01*
X95429Y697943D01*
X95350Y697985D01*
X95269Y698025D01*
X95187Y698060D01*
X95103Y698092D01*
X95018Y698121D01*
X94931Y698146D01*
X94844Y698167D01*
X94756Y698184D01*
X94667Y698198D01*
X94577Y698207D01*
X94488Y698213D01*
X94398Y698215D01*
X92309Y698215D01*
X92219Y698213D01*
X92130Y698207D01*
X92040Y698198D01*
X91951Y698184D01*
X91863Y698167D01*
X91776Y698146D01*
X91689Y698121D01*
X91604Y698092D01*
X91520Y698060D01*
X91438Y698025D01*
X91357Y697985D01*
X91278Y697943D01*
X91201Y697897D01*
X91126Y697847D01*
X91053Y697795D01*
X90982Y697739D01*
X90914Y697681D01*
X90849Y697619D01*
X90786Y697555D01*
X90726Y697488D01*
X90669Y697419D01*
X90615Y697347D01*
X90564Y697273D01*
X90516Y697197D01*
X90472Y697119D01*
X90431Y697039D01*
X90393Y696957D01*
X90359Y696874D01*
X90329Y696789D01*
X90302Y696703D01*
X90279Y696617D01*
X90260Y696529D01*
X90245Y696440D01*
X90233Y696351D01*
X90225Y696262D01*
X90221Y696172D01*
X90221Y696082D01*
X90225Y695992D01*
X90233Y695903D01*
X90245Y695814D01*
X90260Y695725D01*
X90279Y695637D01*
X90302Y695551D01*
X90329Y695465D01*
X90359Y695380D01*
X90393Y695297D01*
X90431Y695215D01*
X90472Y695135D01*
X90516Y695057D01*
X90564Y694981D01*
X90615Y694907D01*
X90669Y694835D01*
X90726Y694766D01*
X90786Y694699D01*
X90849Y694635D01*
X90914Y694573D01*
X90982Y694515D01*
X91053Y694459D01*
X91126Y694407D01*
X91201Y694357D01*
X91278Y694311D01*
X91357Y694269D01*
X91438Y694229D01*
X91520Y694194D01*
X91604Y694162D01*
X91689Y694133D01*
X91776Y694108D01*
X91863Y694087D01*
X91951Y694070D01*
X92040Y694056D01*
X92130Y694047D01*
X92219Y694041D01*
X92309Y694039D01*
X90221Y706094D02*
X99619Y706094D01*
X90221Y706094D02*
X90221Y703484D01*
X90223Y703407D01*
X90229Y703331D01*
X90238Y703254D01*
X90251Y703178D01*
X90268Y703103D01*
X90288Y703029D01*
X90313Y702956D01*
X90340Y702885D01*
X90371Y702814D01*
X90406Y702746D01*
X90444Y702679D01*
X90485Y702614D01*
X90529Y702551D01*
X90576Y702491D01*
X90627Y702432D01*
X90680Y702377D01*
X90735Y702324D01*
X90794Y702273D01*
X90854Y702226D01*
X90917Y702182D01*
X90982Y702141D01*
X91049Y702103D01*
X91117Y702068D01*
X91188Y702037D01*
X91259Y702010D01*
X91332Y701985D01*
X91406Y701965D01*
X91481Y701948D01*
X91557Y701935D01*
X91634Y701926D01*
X91710Y701920D01*
X91787Y701918D01*
X94920Y701918D01*
X94997Y701920D01*
X95073Y701926D01*
X95150Y701935D01*
X95226Y701948D01*
X95301Y701965D01*
X95375Y701985D01*
X95448Y702010D01*
X95519Y702037D01*
X95590Y702068D01*
X95658Y702103D01*
X95725Y702141D01*
X95790Y702182D01*
X95853Y702226D01*
X95913Y702273D01*
X95972Y702324D01*
X96027Y702377D01*
X96080Y702432D01*
X96131Y702491D01*
X96178Y702551D01*
X96222Y702614D01*
X96263Y702679D01*
X96301Y702746D01*
X96336Y702814D01*
X96367Y702885D01*
X96394Y702956D01*
X96419Y703029D01*
X96439Y703103D01*
X96456Y703178D01*
X96469Y703254D01*
X96478Y703331D01*
X96484Y703407D01*
X96486Y703484D01*
X96486Y706094D01*
X90221Y711759D02*
X90221Y714370D01*
X90221Y711759D02*
X90223Y711682D01*
X90229Y711606D01*
X90238Y711529D01*
X90251Y711453D01*
X90268Y711378D01*
X90288Y711304D01*
X90313Y711231D01*
X90340Y711160D01*
X90371Y711089D01*
X90406Y711021D01*
X90444Y710954D01*
X90485Y710889D01*
X90529Y710826D01*
X90576Y710766D01*
X90627Y710707D01*
X90680Y710652D01*
X90735Y710599D01*
X90794Y710548D01*
X90854Y710501D01*
X90917Y710457D01*
X90982Y710416D01*
X91049Y710378D01*
X91117Y710343D01*
X91188Y710312D01*
X91259Y710285D01*
X91332Y710260D01*
X91406Y710240D01*
X91481Y710223D01*
X91557Y710210D01*
X91634Y710201D01*
X91710Y710195D01*
X91787Y710193D01*
X94398Y710193D01*
X94488Y710195D01*
X94577Y710201D01*
X94667Y710210D01*
X94756Y710224D01*
X94844Y710241D01*
X94931Y710262D01*
X95018Y710287D01*
X95103Y710316D01*
X95187Y710348D01*
X95269Y710383D01*
X95350Y710423D01*
X95429Y710465D01*
X95506Y710511D01*
X95581Y710561D01*
X95654Y710613D01*
X95725Y710669D01*
X95793Y710727D01*
X95858Y710789D01*
X95921Y710853D01*
X95981Y710920D01*
X96038Y710989D01*
X96092Y711061D01*
X96143Y711135D01*
X96191Y711211D01*
X96235Y711289D01*
X96276Y711369D01*
X96314Y711451D01*
X96348Y711534D01*
X96378Y711619D01*
X96405Y711705D01*
X96428Y711791D01*
X96447Y711879D01*
X96462Y711968D01*
X96474Y712057D01*
X96482Y712146D01*
X96486Y712236D01*
X96486Y712326D01*
X96482Y712416D01*
X96474Y712505D01*
X96462Y712594D01*
X96447Y712683D01*
X96428Y712771D01*
X96405Y712857D01*
X96378Y712943D01*
X96348Y713028D01*
X96314Y713111D01*
X96276Y713193D01*
X96235Y713273D01*
X96191Y713351D01*
X96143Y713427D01*
X96092Y713501D01*
X96038Y713573D01*
X95981Y713642D01*
X95921Y713709D01*
X95858Y713773D01*
X95793Y713835D01*
X95725Y713893D01*
X95654Y713949D01*
X95581Y714001D01*
X95506Y714051D01*
X95429Y714097D01*
X95350Y714139D01*
X95269Y714179D01*
X95187Y714214D01*
X95103Y714246D01*
X95018Y714275D01*
X94931Y714300D01*
X94844Y714321D01*
X94756Y714338D01*
X94667Y714352D01*
X94577Y714361D01*
X94488Y714367D01*
X94398Y714369D01*
X94398Y714370D02*
X93354Y714370D01*
X93354Y710193D01*
X90221Y723345D02*
X99619Y723345D01*
X90221Y723345D02*
X90221Y725955D01*
X90223Y726032D01*
X90229Y726108D01*
X90238Y726185D01*
X90251Y726261D01*
X90268Y726336D01*
X90288Y726410D01*
X90313Y726483D01*
X90340Y726554D01*
X90371Y726625D01*
X90406Y726693D01*
X90444Y726760D01*
X90485Y726825D01*
X90529Y726888D01*
X90576Y726948D01*
X90627Y727007D01*
X90680Y727062D01*
X90735Y727115D01*
X90794Y727166D01*
X90854Y727213D01*
X90917Y727257D01*
X90982Y727298D01*
X91049Y727336D01*
X91117Y727371D01*
X91188Y727402D01*
X91259Y727429D01*
X91332Y727454D01*
X91406Y727474D01*
X91481Y727491D01*
X91557Y727504D01*
X91633Y727513D01*
X91710Y727519D01*
X91787Y727521D01*
X91787Y727522D02*
X94920Y727522D01*
X94920Y727521D02*
X94997Y727519D01*
X95073Y727513D01*
X95150Y727504D01*
X95226Y727491D01*
X95301Y727474D01*
X95375Y727454D01*
X95448Y727429D01*
X95519Y727402D01*
X95590Y727371D01*
X95658Y727336D01*
X95725Y727298D01*
X95790Y727257D01*
X95853Y727213D01*
X95913Y727166D01*
X95972Y727115D01*
X96027Y727062D01*
X96080Y727007D01*
X96131Y726948D01*
X96178Y726888D01*
X96222Y726825D01*
X96263Y726760D01*
X96301Y726693D01*
X96336Y726625D01*
X96367Y726554D01*
X96394Y726483D01*
X96419Y726410D01*
X96439Y726336D01*
X96456Y726261D01*
X96469Y726185D01*
X96478Y726108D01*
X96484Y726032D01*
X96486Y725955D01*
X96486Y723345D01*
X87088Y730919D02*
X87088Y731963D01*
X96486Y735096D01*
X96486Y730919D02*
X90221Y733007D01*
X90221Y744936D02*
X90221Y747547D01*
X90221Y744936D02*
X90223Y744859D01*
X90229Y744783D01*
X90238Y744706D01*
X90251Y744630D01*
X90268Y744555D01*
X90288Y744481D01*
X90313Y744408D01*
X90340Y744337D01*
X90371Y744266D01*
X90406Y744198D01*
X90444Y744131D01*
X90485Y744066D01*
X90529Y744003D01*
X90576Y743943D01*
X90627Y743884D01*
X90680Y743829D01*
X90735Y743776D01*
X90794Y743725D01*
X90854Y743678D01*
X90917Y743634D01*
X90982Y743593D01*
X91049Y743555D01*
X91117Y743520D01*
X91188Y743489D01*
X91259Y743462D01*
X91332Y743437D01*
X91406Y743417D01*
X91481Y743400D01*
X91557Y743387D01*
X91634Y743378D01*
X91710Y743372D01*
X91787Y743370D01*
X94920Y743370D01*
X94997Y743372D01*
X95073Y743378D01*
X95150Y743387D01*
X95226Y743400D01*
X95301Y743417D01*
X95375Y743437D01*
X95448Y743462D01*
X95519Y743489D01*
X95590Y743520D01*
X95658Y743555D01*
X95725Y743593D01*
X95790Y743634D01*
X95853Y743678D01*
X95913Y743725D01*
X95972Y743776D01*
X96027Y743829D01*
X96080Y743884D01*
X96131Y743943D01*
X96178Y744003D01*
X96222Y744066D01*
X96263Y744131D01*
X96301Y744198D01*
X96336Y744266D01*
X96367Y744337D01*
X96394Y744408D01*
X96419Y744481D01*
X96439Y744555D01*
X96456Y744630D01*
X96469Y744706D01*
X96478Y744783D01*
X96484Y744859D01*
X96486Y744936D01*
X96486Y747547D01*
X88655Y747547D01*
X88655Y747546D02*
X88578Y747544D01*
X88502Y747538D01*
X88425Y747529D01*
X88349Y747516D01*
X88274Y747499D01*
X88200Y747479D01*
X88127Y747454D01*
X88056Y747427D01*
X87985Y747396D01*
X87917Y747361D01*
X87850Y747323D01*
X87785Y747282D01*
X87722Y747238D01*
X87662Y747191D01*
X87603Y747140D01*
X87548Y747087D01*
X87495Y747032D01*
X87444Y746973D01*
X87397Y746913D01*
X87353Y746850D01*
X87312Y746785D01*
X87274Y746718D01*
X87239Y746650D01*
X87208Y746579D01*
X87181Y746508D01*
X87156Y746435D01*
X87136Y746361D01*
X87119Y746286D01*
X87106Y746210D01*
X87097Y746134D01*
X87091Y746057D01*
X87089Y745980D01*
X87088Y745980D02*
X87088Y743892D01*
X90221Y751600D02*
X96486Y751600D01*
X99097Y751339D02*
X99619Y751339D01*
X99619Y751861D01*
X99097Y751861D01*
X99097Y751339D01*
X96486Y754534D02*
X96486Y757667D01*
X99619Y755578D02*
X91787Y755578D01*
X91787Y755579D02*
X91710Y755581D01*
X91634Y755587D01*
X91557Y755596D01*
X91481Y755609D01*
X91406Y755626D01*
X91332Y755646D01*
X91259Y755671D01*
X91188Y755698D01*
X91117Y755729D01*
X91049Y755764D01*
X90982Y755802D01*
X90917Y755843D01*
X90854Y755887D01*
X90794Y755934D01*
X90735Y755985D01*
X90680Y756038D01*
X90627Y756093D01*
X90576Y756152D01*
X90529Y756212D01*
X90485Y756275D01*
X90444Y756340D01*
X90406Y756407D01*
X90371Y756475D01*
X90340Y756546D01*
X90313Y756617D01*
X90288Y756690D01*
X90268Y756764D01*
X90251Y756839D01*
X90238Y756915D01*
X90229Y756992D01*
X90223Y757068D01*
X90221Y757145D01*
X90221Y757667D01*
X90221Y761399D02*
X99619Y761399D01*
X96486Y761399D02*
X96486Y764009D01*
X96484Y764086D01*
X96478Y764162D01*
X96469Y764239D01*
X96456Y764315D01*
X96439Y764390D01*
X96419Y764464D01*
X96394Y764537D01*
X96367Y764608D01*
X96336Y764679D01*
X96301Y764747D01*
X96263Y764814D01*
X96222Y764879D01*
X96178Y764942D01*
X96131Y765002D01*
X96080Y765061D01*
X96027Y765116D01*
X95972Y765169D01*
X95913Y765220D01*
X95853Y765267D01*
X95790Y765311D01*
X95725Y765352D01*
X95658Y765390D01*
X95590Y765425D01*
X95519Y765456D01*
X95448Y765483D01*
X95375Y765508D01*
X95301Y765528D01*
X95226Y765545D01*
X95150Y765558D01*
X95073Y765567D01*
X94997Y765573D01*
X94920Y765575D01*
X94920Y765576D02*
X90221Y765576D01*
X91787Y769933D02*
X96486Y769933D01*
X91787Y769933D02*
X91710Y769935D01*
X91634Y769941D01*
X91557Y769950D01*
X91481Y769963D01*
X91406Y769980D01*
X91332Y770000D01*
X91259Y770025D01*
X91188Y770052D01*
X91117Y770083D01*
X91049Y770118D01*
X90982Y770156D01*
X90917Y770197D01*
X90854Y770241D01*
X90794Y770288D01*
X90735Y770339D01*
X90680Y770392D01*
X90627Y770447D01*
X90576Y770506D01*
X90529Y770566D01*
X90485Y770629D01*
X90444Y770694D01*
X90406Y770761D01*
X90371Y770829D01*
X90340Y770900D01*
X90313Y770971D01*
X90288Y771044D01*
X90268Y771118D01*
X90251Y771193D01*
X90238Y771269D01*
X90229Y771346D01*
X90223Y771422D01*
X90221Y771499D01*
X90221Y774110D01*
X96486Y774110D01*
X99619Y778513D02*
X90221Y778513D01*
X90221Y781124D01*
X90223Y781201D01*
X90229Y781277D01*
X90238Y781354D01*
X90251Y781430D01*
X90268Y781505D01*
X90288Y781579D01*
X90313Y781652D01*
X90340Y781723D01*
X90371Y781794D01*
X90406Y781862D01*
X90444Y781929D01*
X90485Y781994D01*
X90529Y782057D01*
X90576Y782117D01*
X90627Y782176D01*
X90680Y782231D01*
X90735Y782284D01*
X90794Y782335D01*
X90854Y782382D01*
X90917Y782426D01*
X90982Y782467D01*
X91049Y782505D01*
X91117Y782540D01*
X91188Y782571D01*
X91259Y782598D01*
X91332Y782623D01*
X91406Y782643D01*
X91481Y782660D01*
X91557Y782673D01*
X91633Y782682D01*
X91710Y782688D01*
X91787Y782690D01*
X94920Y782690D01*
X94997Y782688D01*
X95073Y782682D01*
X95150Y782673D01*
X95226Y782660D01*
X95301Y782643D01*
X95375Y782623D01*
X95448Y782598D01*
X95519Y782571D01*
X95590Y782540D01*
X95658Y782505D01*
X95725Y782467D01*
X95790Y782426D01*
X95853Y782382D01*
X95913Y782335D01*
X95972Y782284D01*
X96027Y782231D01*
X96080Y782176D01*
X96131Y782117D01*
X96178Y782057D01*
X96222Y781994D01*
X96263Y781929D01*
X96301Y781862D01*
X96336Y781794D01*
X96367Y781723D01*
X96394Y781652D01*
X96419Y781579D01*
X96439Y781505D01*
X96456Y781430D01*
X96469Y781354D01*
X96478Y781277D01*
X96484Y781201D01*
X96486Y781124D01*
X96486Y778513D01*
X90743Y786086D02*
X90221Y786086D01*
X90743Y786086D02*
X90743Y786608D01*
X90221Y786608D01*
X90221Y786086D01*
X90221Y791626D02*
X90221Y793715D01*
X90221Y791626D02*
X90223Y791549D01*
X90229Y791473D01*
X90238Y791396D01*
X90251Y791320D01*
X90268Y791245D01*
X90288Y791171D01*
X90313Y791098D01*
X90340Y791027D01*
X90371Y790956D01*
X90406Y790888D01*
X90444Y790821D01*
X90485Y790756D01*
X90529Y790693D01*
X90576Y790633D01*
X90627Y790574D01*
X90680Y790519D01*
X90735Y790466D01*
X90794Y790415D01*
X90854Y790368D01*
X90917Y790324D01*
X90982Y790283D01*
X91049Y790245D01*
X91117Y790210D01*
X91188Y790179D01*
X91259Y790152D01*
X91332Y790127D01*
X91406Y790107D01*
X91481Y790090D01*
X91557Y790077D01*
X91634Y790068D01*
X91710Y790062D01*
X91787Y790060D01*
X94920Y790060D01*
X94997Y790062D01*
X95073Y790068D01*
X95150Y790077D01*
X95226Y790090D01*
X95301Y790107D01*
X95375Y790127D01*
X95448Y790152D01*
X95519Y790179D01*
X95590Y790210D01*
X95658Y790245D01*
X95725Y790283D01*
X95790Y790324D01*
X95853Y790368D01*
X95913Y790415D01*
X95972Y790466D01*
X96027Y790519D01*
X96080Y790574D01*
X96131Y790633D01*
X96178Y790693D01*
X96222Y790756D01*
X96263Y790821D01*
X96301Y790888D01*
X96336Y790956D01*
X96367Y791027D01*
X96394Y791098D01*
X96419Y791171D01*
X96439Y791245D01*
X96456Y791320D01*
X96469Y791396D01*
X96478Y791473D01*
X96484Y791549D01*
X96486Y791626D01*
X96486Y793715D01*
X94398Y797060D02*
X92309Y797060D01*
X94398Y797061D02*
X94488Y797063D01*
X94577Y797069D01*
X94667Y797078D01*
X94756Y797092D01*
X94844Y797109D01*
X94931Y797130D01*
X95018Y797155D01*
X95103Y797184D01*
X95187Y797216D01*
X95269Y797251D01*
X95350Y797291D01*
X95429Y797333D01*
X95506Y797379D01*
X95581Y797429D01*
X95654Y797481D01*
X95725Y797537D01*
X95793Y797595D01*
X95858Y797657D01*
X95921Y797721D01*
X95981Y797788D01*
X96038Y797857D01*
X96092Y797929D01*
X96143Y798003D01*
X96191Y798079D01*
X96235Y798157D01*
X96276Y798237D01*
X96314Y798319D01*
X96348Y798402D01*
X96378Y798487D01*
X96405Y798573D01*
X96428Y798659D01*
X96447Y798747D01*
X96462Y798836D01*
X96474Y798925D01*
X96482Y799014D01*
X96486Y799104D01*
X96486Y799194D01*
X96482Y799284D01*
X96474Y799373D01*
X96462Y799462D01*
X96447Y799551D01*
X96428Y799639D01*
X96405Y799725D01*
X96378Y799811D01*
X96348Y799896D01*
X96314Y799979D01*
X96276Y800061D01*
X96235Y800141D01*
X96191Y800219D01*
X96143Y800295D01*
X96092Y800369D01*
X96038Y800441D01*
X95981Y800510D01*
X95921Y800577D01*
X95858Y800641D01*
X95793Y800703D01*
X95725Y800761D01*
X95654Y800817D01*
X95581Y800869D01*
X95506Y800919D01*
X95429Y800965D01*
X95350Y801007D01*
X95269Y801047D01*
X95187Y801082D01*
X95103Y801114D01*
X95018Y801143D01*
X94931Y801168D01*
X94844Y801189D01*
X94756Y801206D01*
X94667Y801220D01*
X94577Y801229D01*
X94488Y801235D01*
X94398Y801237D01*
X92309Y801237D01*
X92219Y801235D01*
X92130Y801229D01*
X92040Y801220D01*
X91951Y801206D01*
X91863Y801189D01*
X91776Y801168D01*
X91689Y801143D01*
X91604Y801114D01*
X91520Y801082D01*
X91438Y801047D01*
X91357Y801007D01*
X91278Y800965D01*
X91201Y800919D01*
X91126Y800869D01*
X91053Y800817D01*
X90982Y800761D01*
X90914Y800703D01*
X90849Y800641D01*
X90786Y800577D01*
X90726Y800510D01*
X90669Y800441D01*
X90615Y800369D01*
X90564Y800295D01*
X90516Y800219D01*
X90472Y800141D01*
X90431Y800061D01*
X90393Y799979D01*
X90359Y799896D01*
X90329Y799811D01*
X90302Y799725D01*
X90279Y799639D01*
X90260Y799551D01*
X90245Y799462D01*
X90233Y799373D01*
X90225Y799284D01*
X90221Y799194D01*
X90221Y799104D01*
X90225Y799014D01*
X90233Y798925D01*
X90245Y798836D01*
X90260Y798747D01*
X90279Y798659D01*
X90302Y798573D01*
X90329Y798487D01*
X90359Y798402D01*
X90393Y798319D01*
X90431Y798237D01*
X90472Y798157D01*
X90516Y798079D01*
X90564Y798003D01*
X90615Y797929D01*
X90669Y797857D01*
X90726Y797788D01*
X90786Y797721D01*
X90849Y797657D01*
X90914Y797595D01*
X90982Y797537D01*
X91053Y797481D01*
X91126Y797429D01*
X91201Y797379D01*
X91278Y797333D01*
X91357Y797291D01*
X91438Y797251D01*
X91520Y797216D01*
X91604Y797184D01*
X91689Y797155D01*
X91776Y797130D01*
X91863Y797109D01*
X91951Y797092D01*
X92040Y797078D01*
X92130Y797069D01*
X92219Y797063D01*
X92309Y797061D01*
X90221Y805465D02*
X96486Y805465D01*
X96486Y810164D01*
X96484Y810241D01*
X96478Y810317D01*
X96469Y810394D01*
X96456Y810470D01*
X96439Y810545D01*
X96419Y810619D01*
X96394Y810692D01*
X96367Y810763D01*
X96336Y810834D01*
X96301Y810902D01*
X96263Y810969D01*
X96222Y811034D01*
X96178Y811097D01*
X96131Y811157D01*
X96080Y811216D01*
X96027Y811271D01*
X95972Y811324D01*
X95913Y811375D01*
X95853Y811422D01*
X95790Y811466D01*
X95725Y811507D01*
X95658Y811545D01*
X95590Y811580D01*
X95519Y811611D01*
X95448Y811638D01*
X95375Y811663D01*
X95301Y811683D01*
X95226Y811700D01*
X95150Y811713D01*
X95073Y811722D01*
X94997Y811728D01*
X94920Y811730D01*
X90221Y811730D01*
X90221Y808597D02*
X96486Y808597D01*
X89177Y815653D02*
X100663Y819830D01*
X96486Y823623D02*
X87088Y823623D01*
X96486Y823623D02*
X96486Y826234D01*
X96484Y826311D01*
X96478Y826387D01*
X96469Y826464D01*
X96456Y826540D01*
X96439Y826615D01*
X96419Y826689D01*
X96394Y826762D01*
X96367Y826833D01*
X96336Y826904D01*
X96301Y826972D01*
X96263Y827039D01*
X96222Y827104D01*
X96178Y827167D01*
X96131Y827227D01*
X96080Y827286D01*
X96027Y827341D01*
X95972Y827394D01*
X95913Y827445D01*
X95853Y827492D01*
X95790Y827536D01*
X95725Y827577D01*
X95658Y827615D01*
X95590Y827650D01*
X95519Y827681D01*
X95448Y827708D01*
X95375Y827733D01*
X95301Y827753D01*
X95226Y827770D01*
X95150Y827783D01*
X95073Y827792D01*
X94997Y827798D01*
X94920Y827800D01*
X91787Y827800D01*
X91710Y827798D01*
X91634Y827792D01*
X91557Y827783D01*
X91481Y827770D01*
X91406Y827753D01*
X91332Y827733D01*
X91259Y827708D01*
X91188Y827681D01*
X91117Y827650D01*
X91049Y827615D01*
X90982Y827577D01*
X90917Y827536D01*
X90854Y827492D01*
X90794Y827445D01*
X90735Y827394D01*
X90680Y827341D01*
X90627Y827286D01*
X90576Y827227D01*
X90529Y827167D01*
X90485Y827104D01*
X90444Y827039D01*
X90406Y826972D01*
X90371Y826904D01*
X90340Y826833D01*
X90313Y826762D01*
X90288Y826689D01*
X90268Y826615D01*
X90251Y826540D01*
X90238Y826464D01*
X90229Y826387D01*
X90223Y826311D01*
X90221Y826234D01*
X90221Y823623D01*
X87088Y831197D02*
X87088Y832242D01*
X96486Y835374D01*
X96486Y831197D02*
X90221Y833286D01*
X90221Y839174D02*
X96486Y839174D01*
X96486Y842306D01*
X95442Y842306D01*
X94398Y845218D02*
X92309Y845218D01*
X94398Y845219D02*
X94488Y845221D01*
X94577Y845227D01*
X94667Y845236D01*
X94756Y845250D01*
X94844Y845267D01*
X94931Y845288D01*
X95018Y845313D01*
X95103Y845342D01*
X95187Y845374D01*
X95269Y845409D01*
X95350Y845449D01*
X95429Y845491D01*
X95506Y845537D01*
X95581Y845587D01*
X95654Y845639D01*
X95725Y845695D01*
X95793Y845753D01*
X95858Y845815D01*
X95921Y845879D01*
X95981Y845946D01*
X96038Y846015D01*
X96092Y846087D01*
X96143Y846161D01*
X96191Y846237D01*
X96235Y846315D01*
X96276Y846395D01*
X96314Y846477D01*
X96348Y846560D01*
X96378Y846645D01*
X96405Y846731D01*
X96428Y846817D01*
X96447Y846905D01*
X96462Y846994D01*
X96474Y847083D01*
X96482Y847172D01*
X96486Y847262D01*
X96486Y847352D01*
X96482Y847442D01*
X96474Y847531D01*
X96462Y847620D01*
X96447Y847709D01*
X96428Y847797D01*
X96405Y847883D01*
X96378Y847969D01*
X96348Y848054D01*
X96314Y848137D01*
X96276Y848219D01*
X96235Y848299D01*
X96191Y848377D01*
X96143Y848453D01*
X96092Y848527D01*
X96038Y848599D01*
X95981Y848668D01*
X95921Y848735D01*
X95858Y848799D01*
X95793Y848861D01*
X95725Y848919D01*
X95654Y848975D01*
X95581Y849027D01*
X95506Y849077D01*
X95429Y849123D01*
X95350Y849165D01*
X95269Y849205D01*
X95187Y849240D01*
X95103Y849272D01*
X95018Y849301D01*
X94931Y849326D01*
X94844Y849347D01*
X94756Y849364D01*
X94667Y849378D01*
X94577Y849387D01*
X94488Y849393D01*
X94398Y849395D01*
X92309Y849395D01*
X92219Y849393D01*
X92130Y849387D01*
X92040Y849378D01*
X91951Y849364D01*
X91863Y849347D01*
X91776Y849326D01*
X91689Y849301D01*
X91604Y849272D01*
X91520Y849240D01*
X91438Y849205D01*
X91357Y849165D01*
X91278Y849123D01*
X91201Y849077D01*
X91126Y849027D01*
X91053Y848975D01*
X90982Y848919D01*
X90914Y848861D01*
X90849Y848799D01*
X90786Y848735D01*
X90726Y848668D01*
X90669Y848599D01*
X90615Y848527D01*
X90564Y848453D01*
X90516Y848377D01*
X90472Y848299D01*
X90431Y848219D01*
X90393Y848137D01*
X90359Y848054D01*
X90329Y847969D01*
X90302Y847883D01*
X90279Y847797D01*
X90260Y847709D01*
X90245Y847620D01*
X90233Y847531D01*
X90225Y847442D01*
X90221Y847352D01*
X90221Y847262D01*
X90225Y847172D01*
X90233Y847083D01*
X90245Y846994D01*
X90260Y846905D01*
X90279Y846817D01*
X90302Y846731D01*
X90329Y846645D01*
X90359Y846560D01*
X90393Y846477D01*
X90431Y846395D01*
X90472Y846315D01*
X90516Y846237D01*
X90564Y846161D01*
X90615Y846087D01*
X90669Y846015D01*
X90726Y845946D01*
X90786Y845879D01*
X90849Y845815D01*
X90914Y845753D01*
X90982Y845695D01*
X91053Y845639D01*
X91126Y845587D01*
X91201Y845537D01*
X91278Y845491D01*
X91357Y845449D01*
X91438Y845409D01*
X91520Y845374D01*
X91604Y845342D01*
X91689Y845313D01*
X91776Y845288D01*
X91863Y845267D01*
X91951Y845250D01*
X92040Y845236D01*
X92130Y845227D01*
X92219Y845221D01*
X92309Y845219D01*
X90221Y854709D02*
X90221Y857320D01*
X90221Y854709D02*
X90223Y854632D01*
X90229Y854556D01*
X90238Y854479D01*
X90251Y854403D01*
X90268Y854328D01*
X90288Y854254D01*
X90313Y854181D01*
X90340Y854110D01*
X90371Y854039D01*
X90406Y853971D01*
X90444Y853904D01*
X90485Y853839D01*
X90529Y853776D01*
X90576Y853716D01*
X90627Y853657D01*
X90680Y853602D01*
X90735Y853549D01*
X90794Y853498D01*
X90854Y853451D01*
X90917Y853407D01*
X90982Y853366D01*
X91049Y853328D01*
X91117Y853293D01*
X91188Y853262D01*
X91259Y853235D01*
X91332Y853210D01*
X91406Y853190D01*
X91481Y853173D01*
X91557Y853160D01*
X91634Y853151D01*
X91710Y853145D01*
X91787Y853143D01*
X94398Y853143D01*
X94488Y853145D01*
X94577Y853151D01*
X94667Y853160D01*
X94756Y853174D01*
X94844Y853191D01*
X94931Y853212D01*
X95018Y853237D01*
X95103Y853266D01*
X95187Y853298D01*
X95269Y853333D01*
X95350Y853373D01*
X95429Y853415D01*
X95506Y853461D01*
X95581Y853511D01*
X95654Y853563D01*
X95725Y853619D01*
X95793Y853677D01*
X95858Y853739D01*
X95921Y853803D01*
X95981Y853870D01*
X96038Y853939D01*
X96092Y854011D01*
X96143Y854085D01*
X96191Y854161D01*
X96235Y854239D01*
X96276Y854319D01*
X96314Y854401D01*
X96348Y854484D01*
X96378Y854569D01*
X96405Y854655D01*
X96428Y854741D01*
X96447Y854829D01*
X96462Y854918D01*
X96474Y855007D01*
X96482Y855096D01*
X96486Y855186D01*
X96486Y855276D01*
X96482Y855366D01*
X96474Y855455D01*
X96462Y855544D01*
X96447Y855633D01*
X96428Y855721D01*
X96405Y855807D01*
X96378Y855893D01*
X96348Y855978D01*
X96314Y856061D01*
X96276Y856143D01*
X96235Y856223D01*
X96191Y856301D01*
X96143Y856377D01*
X96092Y856451D01*
X96038Y856523D01*
X95981Y856592D01*
X95921Y856659D01*
X95858Y856723D01*
X95793Y856785D01*
X95725Y856843D01*
X95654Y856899D01*
X95581Y856951D01*
X95506Y857001D01*
X95429Y857047D01*
X95350Y857089D01*
X95269Y857129D01*
X95187Y857164D01*
X95103Y857196D01*
X95018Y857225D01*
X94931Y857250D01*
X94844Y857271D01*
X94756Y857288D01*
X94667Y857302D01*
X94577Y857311D01*
X94488Y857317D01*
X94398Y857319D01*
X94398Y857320D02*
X93354Y857320D01*
X93354Y853143D01*
X93876Y861851D02*
X92832Y864461D01*
X93876Y861851D02*
X93904Y861785D01*
X93937Y861720D01*
X93972Y861657D01*
X94011Y861596D01*
X94053Y861537D01*
X94098Y861481D01*
X94146Y861427D01*
X94197Y861376D01*
X94250Y861327D01*
X94307Y861282D01*
X94365Y861239D01*
X94425Y861200D01*
X94488Y861163D01*
X94553Y861131D01*
X94619Y861102D01*
X94686Y861076D01*
X94755Y861054D01*
X94825Y861036D01*
X94896Y861021D01*
X94967Y861010D01*
X95039Y861003D01*
X95111Y861000D01*
X95183Y861001D01*
X95256Y861006D01*
X95327Y861014D01*
X95399Y861026D01*
X95469Y861042D01*
X95538Y861062D01*
X95607Y861086D01*
X95674Y861113D01*
X95739Y861143D01*
X95803Y861177D01*
X95865Y861215D01*
X95925Y861255D01*
X95982Y861299D01*
X96037Y861346D01*
X96090Y861396D01*
X96139Y861448D01*
X96186Y861503D01*
X96230Y861560D01*
X96271Y861620D01*
X96308Y861682D01*
X96343Y861746D01*
X96373Y861811D01*
X96401Y861878D01*
X96424Y861946D01*
X96444Y862016D01*
X96460Y862086D01*
X96473Y862157D01*
X96481Y862229D01*
X96486Y862301D01*
X96487Y862373D01*
X96486Y862373D02*
X96482Y862524D01*
X96474Y862675D01*
X96463Y862826D01*
X96447Y862977D01*
X96427Y863127D01*
X96404Y863277D01*
X96377Y863426D01*
X96346Y863574D01*
X96311Y863722D01*
X96273Y863868D01*
X96230Y864014D01*
X96184Y864158D01*
X96135Y864301D01*
X96082Y864443D01*
X96025Y864583D01*
X95964Y864722D01*
X92832Y864462D02*
X92804Y864528D01*
X92771Y864593D01*
X92736Y864656D01*
X92697Y864717D01*
X92655Y864776D01*
X92610Y864832D01*
X92562Y864886D01*
X92511Y864937D01*
X92458Y864986D01*
X92401Y865031D01*
X92343Y865074D01*
X92283Y865113D01*
X92220Y865150D01*
X92155Y865182D01*
X92089Y865211D01*
X92022Y865237D01*
X91953Y865259D01*
X91883Y865277D01*
X91812Y865292D01*
X91741Y865303D01*
X91669Y865310D01*
X91597Y865313D01*
X91525Y865312D01*
X91452Y865307D01*
X91381Y865299D01*
X91309Y865287D01*
X91239Y865271D01*
X91170Y865251D01*
X91101Y865227D01*
X91034Y865200D01*
X90969Y865170D01*
X90905Y865136D01*
X90843Y865098D01*
X90783Y865058D01*
X90726Y865014D01*
X90671Y864967D01*
X90618Y864917D01*
X90569Y864865D01*
X90522Y864810D01*
X90478Y864753D01*
X90437Y864693D01*
X90400Y864631D01*
X90365Y864567D01*
X90335Y864502D01*
X90307Y864435D01*
X90284Y864367D01*
X90264Y864297D01*
X90248Y864227D01*
X90235Y864156D01*
X90227Y864084D01*
X90222Y864012D01*
X90221Y863940D01*
X90226Y863730D01*
X90237Y863521D01*
X90252Y863312D01*
X90272Y863104D01*
X90298Y862896D01*
X90328Y862689D01*
X90363Y862482D01*
X90403Y862277D01*
X90447Y862072D01*
X90497Y861869D01*
X90551Y861666D01*
X90611Y861465D01*
X90674Y861266D01*
X90743Y861068D01*
X87088Y869343D02*
X96486Y869343D01*
X96486Y871953D01*
X96484Y872030D01*
X96478Y872106D01*
X96469Y872183D01*
X96456Y872259D01*
X96439Y872334D01*
X96419Y872408D01*
X96394Y872481D01*
X96367Y872552D01*
X96336Y872623D01*
X96301Y872691D01*
X96263Y872758D01*
X96222Y872823D01*
X96178Y872886D01*
X96131Y872946D01*
X96080Y873005D01*
X96027Y873060D01*
X95972Y873113D01*
X95913Y873164D01*
X95853Y873211D01*
X95790Y873255D01*
X95725Y873296D01*
X95658Y873334D01*
X95590Y873369D01*
X95519Y873400D01*
X95448Y873427D01*
X95375Y873452D01*
X95301Y873472D01*
X95226Y873489D01*
X95150Y873502D01*
X95073Y873511D01*
X94997Y873517D01*
X94920Y873519D01*
X94920Y873520D02*
X91787Y873520D01*
X91787Y873519D02*
X91710Y873517D01*
X91634Y873511D01*
X91557Y873502D01*
X91481Y873489D01*
X91406Y873472D01*
X91332Y873452D01*
X91259Y873427D01*
X91188Y873400D01*
X91117Y873369D01*
X91049Y873334D01*
X90982Y873296D01*
X90917Y873255D01*
X90854Y873211D01*
X90794Y873164D01*
X90735Y873113D01*
X90680Y873060D01*
X90627Y873005D01*
X90576Y872946D01*
X90529Y872886D01*
X90485Y872823D01*
X90444Y872758D01*
X90406Y872691D01*
X90371Y872623D01*
X90340Y872552D01*
X90313Y872481D01*
X90288Y872408D01*
X90268Y872334D01*
X90251Y872259D01*
X90238Y872183D01*
X90229Y872106D01*
X90223Y872030D01*
X90221Y871953D01*
X90221Y869343D01*
X72008Y725789D02*
X67832Y725789D01*
X72008Y725788D02*
X72109Y725790D01*
X72210Y725796D01*
X72311Y725806D01*
X72411Y725819D01*
X72511Y725837D01*
X72610Y725858D01*
X72708Y725884D01*
X72805Y725913D01*
X72901Y725945D01*
X72995Y725982D01*
X73088Y726022D01*
X73180Y726066D01*
X73269Y726113D01*
X73357Y726164D01*
X73443Y726218D01*
X73526Y726275D01*
X73608Y726335D01*
X73686Y726399D01*
X73763Y726465D01*
X73836Y726535D01*
X73907Y726607D01*
X73975Y726682D01*
X74040Y726760D01*
X74102Y726840D01*
X74161Y726922D01*
X74217Y727007D01*
X74269Y727094D01*
X74318Y727182D01*
X74364Y727273D01*
X74405Y727365D01*
X74444Y727459D01*
X74478Y727554D01*
X74509Y727650D01*
X74536Y727748D01*
X74560Y727846D01*
X74579Y727946D01*
X74595Y728046D01*
X74607Y728146D01*
X74615Y728247D01*
X74619Y728348D01*
X74619Y728450D01*
X74615Y728551D01*
X74607Y728652D01*
X74595Y728752D01*
X74579Y728852D01*
X74560Y728952D01*
X74536Y729050D01*
X74509Y729148D01*
X74478Y729244D01*
X74444Y729339D01*
X74405Y729433D01*
X74364Y729525D01*
X74318Y729616D01*
X74269Y729705D01*
X74217Y729791D01*
X74161Y729876D01*
X74102Y729958D01*
X74040Y730038D01*
X73975Y730116D01*
X73907Y730191D01*
X73836Y730263D01*
X73763Y730333D01*
X73686Y730399D01*
X73608Y730463D01*
X73526Y730523D01*
X73443Y730580D01*
X73357Y730634D01*
X73269Y730685D01*
X73180Y730732D01*
X73088Y730776D01*
X72995Y730816D01*
X72901Y730853D01*
X72805Y730885D01*
X72708Y730914D01*
X72610Y730940D01*
X72511Y730961D01*
X72411Y730979D01*
X72311Y730992D01*
X72210Y731002D01*
X72109Y731008D01*
X72008Y731010D01*
X67832Y731010D01*
X67731Y731008D01*
X67630Y731002D01*
X67529Y730992D01*
X67429Y730979D01*
X67329Y730961D01*
X67230Y730940D01*
X67132Y730914D01*
X67035Y730885D01*
X66939Y730853D01*
X66845Y730816D01*
X66752Y730776D01*
X66660Y730732D01*
X66571Y730685D01*
X66483Y730634D01*
X66397Y730580D01*
X66314Y730523D01*
X66232Y730463D01*
X66154Y730399D01*
X66077Y730333D01*
X66004Y730263D01*
X65933Y730191D01*
X65865Y730116D01*
X65800Y730038D01*
X65738Y729958D01*
X65679Y729876D01*
X65623Y729791D01*
X65571Y729705D01*
X65522Y729616D01*
X65476Y729525D01*
X65435Y729433D01*
X65396Y729339D01*
X65362Y729244D01*
X65331Y729148D01*
X65304Y729050D01*
X65280Y728952D01*
X65261Y728852D01*
X65245Y728752D01*
X65233Y728652D01*
X65225Y728551D01*
X65221Y728450D01*
X65221Y728348D01*
X65225Y728247D01*
X65233Y728146D01*
X65245Y728046D01*
X65261Y727946D01*
X65280Y727846D01*
X65304Y727748D01*
X65331Y727650D01*
X65362Y727554D01*
X65396Y727459D01*
X65435Y727365D01*
X65476Y727273D01*
X65522Y727182D01*
X65571Y727094D01*
X65623Y727007D01*
X65679Y726922D01*
X65738Y726840D01*
X65800Y726760D01*
X65865Y726682D01*
X65933Y726607D01*
X66004Y726535D01*
X66077Y726465D01*
X66154Y726399D01*
X66232Y726335D01*
X66314Y726275D01*
X66397Y726218D01*
X66483Y726164D01*
X66571Y726113D01*
X66660Y726066D01*
X66752Y726022D01*
X66845Y725982D01*
X66939Y725945D01*
X67035Y725913D01*
X67132Y725884D01*
X67230Y725858D01*
X67329Y725837D01*
X67429Y725819D01*
X67529Y725806D01*
X67630Y725796D01*
X67731Y725790D01*
X67832Y725788D01*
X67309Y729965D02*
X65221Y732054D01*
X65221Y737548D02*
X65223Y737637D01*
X65229Y737725D01*
X65238Y737813D01*
X65251Y737901D01*
X65268Y737988D01*
X65288Y738074D01*
X65313Y738159D01*
X65340Y738244D01*
X65372Y738327D01*
X65406Y738408D01*
X65445Y738488D01*
X65486Y738566D01*
X65531Y738643D01*
X65579Y738717D01*
X65630Y738790D01*
X65684Y738860D01*
X65742Y738927D01*
X65802Y738993D01*
X65864Y739055D01*
X65930Y739115D01*
X65997Y739173D01*
X66067Y739227D01*
X66140Y739278D01*
X66214Y739326D01*
X66291Y739371D01*
X66369Y739412D01*
X66449Y739451D01*
X66530Y739485D01*
X66613Y739517D01*
X66698Y739544D01*
X66783Y739569D01*
X66869Y739589D01*
X66956Y739606D01*
X67044Y739619D01*
X67132Y739628D01*
X67220Y739634D01*
X67309Y739636D01*
X65221Y737548D02*
X65223Y737419D01*
X65229Y737290D01*
X65238Y737161D01*
X65251Y737033D01*
X65268Y736905D01*
X65289Y736778D01*
X65313Y736651D01*
X65341Y736525D01*
X65373Y736400D01*
X65408Y736276D01*
X65447Y736153D01*
X65490Y736031D01*
X65536Y735911D01*
X65586Y735792D01*
X65639Y735674D01*
X65695Y735558D01*
X65755Y735444D01*
X65818Y735331D01*
X65885Y735221D01*
X65954Y735112D01*
X66027Y735006D01*
X66103Y734901D01*
X66182Y734799D01*
X66264Y734700D01*
X66348Y734602D01*
X66436Y734507D01*
X66526Y734415D01*
X72531Y734677D02*
X72620Y734679D01*
X72708Y734685D01*
X72796Y734694D01*
X72884Y734707D01*
X72971Y734724D01*
X73057Y734744D01*
X73142Y734769D01*
X73227Y734796D01*
X73310Y734828D01*
X73391Y734862D01*
X73471Y734901D01*
X73549Y734942D01*
X73626Y734987D01*
X73700Y735035D01*
X73773Y735086D01*
X73843Y735140D01*
X73910Y735198D01*
X73976Y735258D01*
X74038Y735320D01*
X74098Y735386D01*
X74156Y735453D01*
X74210Y735523D01*
X74261Y735596D01*
X74309Y735670D01*
X74354Y735747D01*
X74395Y735825D01*
X74434Y735905D01*
X74468Y735986D01*
X74500Y736069D01*
X74527Y736154D01*
X74552Y736239D01*
X74572Y736325D01*
X74589Y736412D01*
X74602Y736500D01*
X74611Y736588D01*
X74617Y736676D01*
X74619Y736765D01*
X74617Y736885D01*
X74612Y737005D01*
X74602Y737125D01*
X74590Y737244D01*
X74573Y737363D01*
X74553Y737481D01*
X74529Y737599D01*
X74502Y737715D01*
X74471Y737831D01*
X74437Y737946D01*
X74399Y738060D01*
X74357Y738173D01*
X74312Y738284D01*
X74264Y738394D01*
X74213Y738502D01*
X74158Y738609D01*
X74100Y738714D01*
X74038Y738817D01*
X73974Y738918D01*
X73906Y739018D01*
X73836Y739115D01*
X70704Y735721D02*
X70752Y735643D01*
X70804Y735567D01*
X70858Y735494D01*
X70916Y735423D01*
X70977Y735354D01*
X71041Y735288D01*
X71108Y735225D01*
X71177Y735165D01*
X71249Y735108D01*
X71323Y735054D01*
X71400Y735004D01*
X71479Y734956D01*
X71559Y734913D01*
X71642Y734872D01*
X71726Y734836D01*
X71811Y734803D01*
X71898Y734774D01*
X71987Y734748D01*
X72076Y734726D01*
X72166Y734709D01*
X72256Y734695D01*
X72348Y734685D01*
X72439Y734679D01*
X72531Y734677D01*
X69136Y738593D02*
X69088Y738671D01*
X69036Y738747D01*
X68982Y738820D01*
X68924Y738891D01*
X68863Y738960D01*
X68799Y739026D01*
X68732Y739089D01*
X68663Y739149D01*
X68591Y739206D01*
X68517Y739260D01*
X68440Y739310D01*
X68361Y739358D01*
X68281Y739401D01*
X68198Y739442D01*
X68114Y739478D01*
X68029Y739511D01*
X67942Y739540D01*
X67853Y739566D01*
X67764Y739588D01*
X67674Y739605D01*
X67584Y739619D01*
X67492Y739629D01*
X67401Y739635D01*
X67309Y739637D01*
X69137Y738592D02*
X70703Y735721D01*
X70442Y743691D02*
X70442Y746301D01*
X70443Y746301D02*
X70441Y746402D01*
X70435Y746503D01*
X70425Y746604D01*
X70412Y746704D01*
X70394Y746804D01*
X70373Y746903D01*
X70347Y747001D01*
X70318Y747098D01*
X70286Y747194D01*
X70249Y747288D01*
X70209Y747381D01*
X70165Y747473D01*
X70118Y747562D01*
X70067Y747650D01*
X70013Y747736D01*
X69956Y747819D01*
X69896Y747901D01*
X69832Y747979D01*
X69766Y748056D01*
X69696Y748129D01*
X69624Y748200D01*
X69549Y748268D01*
X69471Y748333D01*
X69391Y748395D01*
X69309Y748454D01*
X69224Y748510D01*
X69138Y748562D01*
X69049Y748611D01*
X68958Y748657D01*
X68866Y748698D01*
X68772Y748737D01*
X68677Y748771D01*
X68581Y748802D01*
X68483Y748829D01*
X68385Y748853D01*
X68285Y748872D01*
X68185Y748888D01*
X68085Y748900D01*
X67984Y748908D01*
X67883Y748912D01*
X67781Y748912D01*
X67680Y748908D01*
X67579Y748900D01*
X67479Y748888D01*
X67379Y748872D01*
X67279Y748853D01*
X67181Y748829D01*
X67083Y748802D01*
X66987Y748771D01*
X66892Y748737D01*
X66798Y748698D01*
X66706Y748657D01*
X66615Y748611D01*
X66527Y748562D01*
X66440Y748510D01*
X66355Y748454D01*
X66273Y748395D01*
X66193Y748333D01*
X66115Y748268D01*
X66040Y748200D01*
X65968Y748129D01*
X65898Y748056D01*
X65832Y747979D01*
X65768Y747901D01*
X65708Y747819D01*
X65651Y747736D01*
X65597Y747650D01*
X65546Y747562D01*
X65499Y747473D01*
X65455Y747381D01*
X65415Y747288D01*
X65378Y747194D01*
X65346Y747098D01*
X65317Y747001D01*
X65291Y746903D01*
X65270Y746804D01*
X65252Y746704D01*
X65239Y746604D01*
X65229Y746503D01*
X65223Y746402D01*
X65221Y746301D01*
X65221Y743691D01*
X74619Y743691D01*
X74619Y746301D01*
X74617Y746391D01*
X74611Y746480D01*
X74602Y746570D01*
X74588Y746659D01*
X74571Y746747D01*
X74550Y746834D01*
X74525Y746921D01*
X74496Y747006D01*
X74464Y747090D01*
X74429Y747172D01*
X74389Y747253D01*
X74347Y747332D01*
X74301Y747409D01*
X74251Y747484D01*
X74199Y747557D01*
X74143Y747628D01*
X74085Y747696D01*
X74023Y747761D01*
X73959Y747824D01*
X73892Y747884D01*
X73823Y747941D01*
X73751Y747995D01*
X73677Y748046D01*
X73601Y748094D01*
X73523Y748138D01*
X73443Y748179D01*
X73361Y748217D01*
X73278Y748251D01*
X73193Y748281D01*
X73107Y748308D01*
X73021Y748331D01*
X72933Y748350D01*
X72844Y748365D01*
X72755Y748377D01*
X72666Y748385D01*
X72576Y748389D01*
X72486Y748389D01*
X72396Y748385D01*
X72307Y748377D01*
X72218Y748365D01*
X72129Y748350D01*
X72041Y748331D01*
X71955Y748308D01*
X71869Y748281D01*
X71784Y748251D01*
X71701Y748217D01*
X71619Y748179D01*
X71539Y748138D01*
X71461Y748094D01*
X71385Y748046D01*
X71311Y747995D01*
X71239Y747941D01*
X71170Y747884D01*
X71103Y747824D01*
X71039Y747761D01*
X70977Y747696D01*
X70919Y747628D01*
X70863Y747557D01*
X70811Y747484D01*
X70761Y747409D01*
X70715Y747332D01*
X70673Y747253D01*
X70633Y747172D01*
X70598Y747090D01*
X70566Y747006D01*
X70537Y746921D01*
X70512Y746834D01*
X70491Y746747D01*
X70474Y746659D01*
X70460Y746570D01*
X70451Y746480D01*
X70445Y746391D01*
X70443Y746301D01*
X74619Y757711D02*
X65221Y757711D01*
X74619Y757711D02*
X74619Y760322D01*
X74617Y760423D01*
X74611Y760524D01*
X74601Y760625D01*
X74588Y760725D01*
X74570Y760825D01*
X74549Y760924D01*
X74523Y761022D01*
X74494Y761119D01*
X74462Y761215D01*
X74425Y761309D01*
X74385Y761402D01*
X74341Y761494D01*
X74294Y761583D01*
X74243Y761671D01*
X74189Y761757D01*
X74132Y761840D01*
X74072Y761922D01*
X74008Y762000D01*
X73942Y762077D01*
X73872Y762150D01*
X73800Y762221D01*
X73725Y762289D01*
X73647Y762354D01*
X73567Y762416D01*
X73485Y762475D01*
X73400Y762531D01*
X73314Y762583D01*
X73225Y762632D01*
X73134Y762678D01*
X73042Y762719D01*
X72948Y762758D01*
X72853Y762792D01*
X72757Y762823D01*
X72659Y762850D01*
X72561Y762874D01*
X72461Y762893D01*
X72361Y762909D01*
X72261Y762921D01*
X72160Y762929D01*
X72059Y762933D01*
X71957Y762933D01*
X71856Y762929D01*
X71755Y762921D01*
X71655Y762909D01*
X71555Y762893D01*
X71455Y762874D01*
X71357Y762850D01*
X71259Y762823D01*
X71163Y762792D01*
X71068Y762758D01*
X70974Y762719D01*
X70882Y762678D01*
X70791Y762632D01*
X70703Y762583D01*
X70616Y762531D01*
X70531Y762475D01*
X70449Y762416D01*
X70369Y762354D01*
X70291Y762289D01*
X70216Y762221D01*
X70144Y762150D01*
X70074Y762077D01*
X70008Y762000D01*
X69944Y761922D01*
X69884Y761840D01*
X69827Y761757D01*
X69773Y761671D01*
X69722Y761583D01*
X69675Y761494D01*
X69631Y761402D01*
X69591Y761309D01*
X69554Y761215D01*
X69522Y761119D01*
X69493Y761022D01*
X69467Y760924D01*
X69446Y760825D01*
X69428Y760725D01*
X69415Y760625D01*
X69405Y760524D01*
X69399Y760423D01*
X69397Y760322D01*
X69398Y760322D02*
X69398Y757711D01*
X65221Y768482D02*
X65221Y770570D01*
X65221Y768482D02*
X65223Y768393D01*
X65229Y768305D01*
X65238Y768217D01*
X65251Y768129D01*
X65268Y768042D01*
X65288Y767956D01*
X65313Y767871D01*
X65340Y767786D01*
X65372Y767703D01*
X65406Y767622D01*
X65445Y767542D01*
X65486Y767464D01*
X65531Y767387D01*
X65579Y767313D01*
X65630Y767240D01*
X65684Y767170D01*
X65742Y767103D01*
X65802Y767037D01*
X65864Y766975D01*
X65930Y766915D01*
X65997Y766857D01*
X66067Y766803D01*
X66140Y766752D01*
X66214Y766704D01*
X66291Y766659D01*
X66369Y766618D01*
X66449Y766579D01*
X66530Y766545D01*
X66613Y766513D01*
X66698Y766486D01*
X66783Y766461D01*
X66869Y766441D01*
X66956Y766424D01*
X67044Y766411D01*
X67132Y766402D01*
X67220Y766396D01*
X67309Y766394D01*
X72531Y766394D01*
X72622Y766396D01*
X72713Y766402D01*
X72804Y766412D01*
X72894Y766426D01*
X72983Y766443D01*
X73071Y766465D01*
X73159Y766491D01*
X73245Y766520D01*
X73330Y766553D01*
X73413Y766590D01*
X73495Y766630D01*
X73575Y766674D01*
X73653Y766721D01*
X73729Y766772D01*
X73802Y766825D01*
X73873Y766882D01*
X73942Y766943D01*
X74007Y767006D01*
X74070Y767071D01*
X74130Y767140D01*
X74188Y767211D01*
X74241Y767284D01*
X74292Y767360D01*
X74339Y767438D01*
X74383Y767518D01*
X74423Y767600D01*
X74460Y767683D01*
X74493Y767768D01*
X74522Y767854D01*
X74548Y767942D01*
X74570Y768030D01*
X74587Y768119D01*
X74601Y768209D01*
X74611Y768300D01*
X74617Y768391D01*
X74619Y768482D01*
X74619Y770570D01*
X70442Y774475D02*
X70442Y777086D01*
X70443Y777086D02*
X70441Y777187D01*
X70435Y777288D01*
X70425Y777389D01*
X70412Y777489D01*
X70394Y777589D01*
X70373Y777688D01*
X70347Y777786D01*
X70318Y777883D01*
X70286Y777979D01*
X70249Y778073D01*
X70209Y778166D01*
X70165Y778258D01*
X70118Y778347D01*
X70067Y778435D01*
X70013Y778521D01*
X69956Y778604D01*
X69896Y778686D01*
X69832Y778764D01*
X69766Y778841D01*
X69696Y778914D01*
X69624Y778985D01*
X69549Y779053D01*
X69471Y779118D01*
X69391Y779180D01*
X69309Y779239D01*
X69224Y779295D01*
X69138Y779347D01*
X69049Y779396D01*
X68958Y779442D01*
X68866Y779483D01*
X68772Y779522D01*
X68677Y779556D01*
X68581Y779587D01*
X68483Y779614D01*
X68385Y779638D01*
X68285Y779657D01*
X68185Y779673D01*
X68085Y779685D01*
X67984Y779693D01*
X67883Y779697D01*
X67781Y779697D01*
X67680Y779693D01*
X67579Y779685D01*
X67479Y779673D01*
X67379Y779657D01*
X67279Y779638D01*
X67181Y779614D01*
X67083Y779587D01*
X66987Y779556D01*
X66892Y779522D01*
X66798Y779483D01*
X66706Y779442D01*
X66615Y779396D01*
X66527Y779347D01*
X66440Y779295D01*
X66355Y779239D01*
X66273Y779180D01*
X66193Y779118D01*
X66115Y779053D01*
X66040Y778985D01*
X65968Y778914D01*
X65898Y778841D01*
X65832Y778764D01*
X65768Y778686D01*
X65708Y778604D01*
X65651Y778521D01*
X65597Y778435D01*
X65546Y778347D01*
X65499Y778258D01*
X65455Y778166D01*
X65415Y778073D01*
X65378Y777979D01*
X65346Y777883D01*
X65317Y777786D01*
X65291Y777688D01*
X65270Y777589D01*
X65252Y777489D01*
X65239Y777389D01*
X65229Y777288D01*
X65223Y777187D01*
X65221Y777086D01*
X65221Y774475D01*
X74619Y774475D01*
X74619Y777086D01*
X74617Y777176D01*
X74611Y777265D01*
X74602Y777355D01*
X74588Y777444D01*
X74571Y777532D01*
X74550Y777619D01*
X74525Y777706D01*
X74496Y777791D01*
X74464Y777875D01*
X74429Y777957D01*
X74389Y778038D01*
X74347Y778117D01*
X74301Y778194D01*
X74251Y778269D01*
X74199Y778342D01*
X74143Y778413D01*
X74085Y778481D01*
X74023Y778546D01*
X73959Y778609D01*
X73892Y778669D01*
X73823Y778726D01*
X73751Y778780D01*
X73677Y778831D01*
X73601Y778879D01*
X73523Y778923D01*
X73443Y778964D01*
X73361Y779002D01*
X73278Y779036D01*
X73193Y779066D01*
X73107Y779093D01*
X73021Y779116D01*
X72933Y779135D01*
X72844Y779150D01*
X72755Y779162D01*
X72666Y779170D01*
X72576Y779174D01*
X72486Y779174D01*
X72396Y779170D01*
X72307Y779162D01*
X72218Y779150D01*
X72129Y779135D01*
X72041Y779116D01*
X71955Y779093D01*
X71869Y779066D01*
X71784Y779036D01*
X71701Y779002D01*
X71619Y778964D01*
X71539Y778923D01*
X71461Y778879D01*
X71385Y778831D01*
X71311Y778780D01*
X71239Y778726D01*
X71170Y778669D01*
X71103Y778609D01*
X71039Y778546D01*
X70977Y778481D01*
X70919Y778413D01*
X70863Y778342D01*
X70811Y778269D01*
X70761Y778194D01*
X70715Y778117D01*
X70673Y778038D01*
X70633Y777957D01*
X70598Y777875D01*
X70566Y777791D01*
X70537Y777706D01*
X70512Y777619D01*
X70491Y777532D01*
X70474Y777444D01*
X70460Y777355D01*
X70451Y777265D01*
X70445Y777176D01*
X70443Y777086D01*
X71486Y787668D02*
X65221Y789756D01*
X71486Y791845D01*
X72531Y795375D02*
X74619Y797986D01*
X65221Y797986D01*
X65221Y800596D02*
X65221Y795375D01*
X65221Y804125D02*
X65743Y804125D01*
X65743Y804647D01*
X65221Y804647D01*
X65221Y804125D01*
X72531Y808177D02*
X74619Y810787D01*
X65221Y810787D01*
X65221Y808177D02*
X65221Y813398D01*
X65221Y822460D02*
X74619Y822460D01*
X65221Y822460D02*
X65221Y825071D01*
X65223Y825148D01*
X65229Y825224D01*
X65238Y825301D01*
X65251Y825377D01*
X65268Y825452D01*
X65288Y825526D01*
X65313Y825599D01*
X65340Y825670D01*
X65371Y825741D01*
X65406Y825809D01*
X65444Y825876D01*
X65485Y825941D01*
X65529Y826004D01*
X65576Y826064D01*
X65627Y826123D01*
X65680Y826178D01*
X65735Y826231D01*
X65794Y826282D01*
X65854Y826329D01*
X65917Y826373D01*
X65982Y826414D01*
X66049Y826452D01*
X66117Y826487D01*
X66188Y826518D01*
X66259Y826545D01*
X66332Y826570D01*
X66406Y826590D01*
X66481Y826607D01*
X66557Y826620D01*
X66633Y826629D01*
X66710Y826635D01*
X66787Y826637D01*
X69920Y826637D01*
X69997Y826635D01*
X70073Y826629D01*
X70150Y826620D01*
X70226Y826607D01*
X70301Y826590D01*
X70375Y826570D01*
X70448Y826545D01*
X70519Y826518D01*
X70590Y826487D01*
X70658Y826452D01*
X70725Y826414D01*
X70790Y826373D01*
X70853Y826329D01*
X70913Y826282D01*
X70972Y826231D01*
X71027Y826178D01*
X71080Y826123D01*
X71131Y826064D01*
X71178Y826004D01*
X71222Y825941D01*
X71263Y825876D01*
X71301Y825809D01*
X71336Y825741D01*
X71367Y825670D01*
X71394Y825599D01*
X71419Y825526D01*
X71439Y825452D01*
X71456Y825377D01*
X71469Y825301D01*
X71478Y825224D01*
X71484Y825148D01*
X71486Y825071D01*
X71486Y822460D01*
X62088Y830035D02*
X62088Y831079D01*
X71486Y834211D01*
X71486Y830035D02*
X65221Y832123D01*
X49981Y717525D02*
X49981Y715436D01*
X49983Y715347D01*
X49989Y715259D01*
X49998Y715171D01*
X50011Y715083D01*
X50028Y714996D01*
X50048Y714910D01*
X50073Y714825D01*
X50100Y714740D01*
X50132Y714657D01*
X50166Y714576D01*
X50205Y714496D01*
X50246Y714418D01*
X50291Y714341D01*
X50339Y714267D01*
X50390Y714194D01*
X50444Y714124D01*
X50502Y714057D01*
X50562Y713991D01*
X50624Y713929D01*
X50690Y713869D01*
X50757Y713811D01*
X50827Y713757D01*
X50900Y713706D01*
X50974Y713658D01*
X51051Y713613D01*
X51129Y713572D01*
X51209Y713533D01*
X51290Y713499D01*
X51373Y713467D01*
X51458Y713440D01*
X51543Y713415D01*
X51629Y713395D01*
X51716Y713378D01*
X51804Y713365D01*
X51892Y713356D01*
X51980Y713350D01*
X52069Y713348D01*
X57291Y713348D01*
X57291Y713349D02*
X57382Y713351D01*
X57473Y713357D01*
X57564Y713367D01*
X57654Y713381D01*
X57743Y713398D01*
X57831Y713420D01*
X57919Y713446D01*
X58005Y713475D01*
X58090Y713508D01*
X58173Y713545D01*
X58255Y713585D01*
X58335Y713629D01*
X58413Y713676D01*
X58489Y713727D01*
X58562Y713780D01*
X58633Y713837D01*
X58702Y713898D01*
X58767Y713961D01*
X58830Y714026D01*
X58890Y714095D01*
X58948Y714166D01*
X59001Y714239D01*
X59052Y714315D01*
X59099Y714393D01*
X59143Y714473D01*
X59183Y714555D01*
X59220Y714638D01*
X59253Y714723D01*
X59282Y714809D01*
X59308Y714897D01*
X59330Y714985D01*
X59347Y715074D01*
X59361Y715164D01*
X59371Y715255D01*
X59377Y715346D01*
X59379Y715437D01*
X59379Y715436D02*
X59379Y717525D01*
X54158Y720906D02*
X52069Y720906D01*
X54158Y720907D02*
X54248Y720909D01*
X54337Y720915D01*
X54427Y720924D01*
X54516Y720938D01*
X54604Y720955D01*
X54691Y720976D01*
X54778Y721001D01*
X54863Y721030D01*
X54947Y721062D01*
X55029Y721097D01*
X55110Y721137D01*
X55189Y721179D01*
X55266Y721225D01*
X55341Y721275D01*
X55414Y721327D01*
X55485Y721383D01*
X55553Y721441D01*
X55618Y721503D01*
X55681Y721567D01*
X55741Y721634D01*
X55798Y721703D01*
X55852Y721775D01*
X55903Y721849D01*
X55951Y721925D01*
X55995Y722003D01*
X56036Y722083D01*
X56074Y722165D01*
X56108Y722248D01*
X56138Y722333D01*
X56165Y722419D01*
X56188Y722505D01*
X56207Y722593D01*
X56222Y722682D01*
X56234Y722771D01*
X56242Y722860D01*
X56246Y722950D01*
X56246Y723040D01*
X56242Y723130D01*
X56234Y723219D01*
X56222Y723308D01*
X56207Y723397D01*
X56188Y723485D01*
X56165Y723571D01*
X56138Y723657D01*
X56108Y723742D01*
X56074Y723825D01*
X56036Y723907D01*
X55995Y723987D01*
X55951Y724065D01*
X55903Y724141D01*
X55852Y724215D01*
X55798Y724287D01*
X55741Y724356D01*
X55681Y724423D01*
X55618Y724487D01*
X55553Y724549D01*
X55485Y724607D01*
X55414Y724663D01*
X55341Y724715D01*
X55266Y724765D01*
X55189Y724811D01*
X55110Y724853D01*
X55029Y724893D01*
X54947Y724928D01*
X54863Y724960D01*
X54778Y724989D01*
X54691Y725014D01*
X54604Y725035D01*
X54516Y725052D01*
X54427Y725066D01*
X54337Y725075D01*
X54248Y725081D01*
X54158Y725083D01*
X52069Y725083D01*
X51979Y725081D01*
X51890Y725075D01*
X51800Y725066D01*
X51711Y725052D01*
X51623Y725035D01*
X51536Y725014D01*
X51449Y724989D01*
X51364Y724960D01*
X51280Y724928D01*
X51198Y724893D01*
X51117Y724853D01*
X51038Y724811D01*
X50961Y724765D01*
X50886Y724715D01*
X50813Y724663D01*
X50742Y724607D01*
X50674Y724549D01*
X50609Y724487D01*
X50546Y724423D01*
X50486Y724356D01*
X50429Y724287D01*
X50375Y724215D01*
X50324Y724141D01*
X50276Y724065D01*
X50232Y723987D01*
X50191Y723907D01*
X50153Y723825D01*
X50119Y723742D01*
X50089Y723657D01*
X50062Y723571D01*
X50039Y723485D01*
X50020Y723397D01*
X50005Y723308D01*
X49993Y723219D01*
X49985Y723130D01*
X49981Y723040D01*
X49981Y722950D01*
X49985Y722860D01*
X49993Y722771D01*
X50005Y722682D01*
X50020Y722593D01*
X50039Y722505D01*
X50062Y722419D01*
X50089Y722333D01*
X50119Y722248D01*
X50153Y722165D01*
X50191Y722083D01*
X50232Y722003D01*
X50276Y721925D01*
X50324Y721849D01*
X50375Y721775D01*
X50429Y721703D01*
X50486Y721634D01*
X50546Y721567D01*
X50609Y721503D01*
X50674Y721441D01*
X50742Y721383D01*
X50813Y721327D01*
X50886Y721275D01*
X50961Y721225D01*
X51038Y721179D01*
X51117Y721137D01*
X51198Y721097D01*
X51280Y721062D01*
X51364Y721030D01*
X51449Y721001D01*
X51536Y720976D01*
X51623Y720955D01*
X51711Y720938D01*
X51800Y720924D01*
X51890Y720915D01*
X51979Y720909D01*
X52069Y720907D01*
X49981Y729136D02*
X56246Y729136D01*
X56246Y731746D01*
X56244Y731823D01*
X56238Y731899D01*
X56229Y731976D01*
X56216Y732052D01*
X56199Y732127D01*
X56179Y732201D01*
X56154Y732274D01*
X56127Y732345D01*
X56096Y732416D01*
X56061Y732484D01*
X56023Y732551D01*
X55982Y732616D01*
X55938Y732679D01*
X55891Y732739D01*
X55840Y732798D01*
X55787Y732853D01*
X55732Y732906D01*
X55673Y732957D01*
X55613Y733004D01*
X55550Y733048D01*
X55485Y733089D01*
X55418Y733127D01*
X55350Y733162D01*
X55279Y733193D01*
X55208Y733220D01*
X55135Y733245D01*
X55061Y733265D01*
X54986Y733282D01*
X54910Y733295D01*
X54833Y733304D01*
X54757Y733310D01*
X54680Y733312D01*
X54680Y733313D02*
X49981Y733313D01*
X53636Y738149D02*
X52592Y740759D01*
X53636Y738148D02*
X53664Y738082D01*
X53697Y738017D01*
X53732Y737954D01*
X53771Y737893D01*
X53813Y737834D01*
X53858Y737778D01*
X53906Y737724D01*
X53957Y737673D01*
X54010Y737624D01*
X54067Y737579D01*
X54125Y737536D01*
X54185Y737497D01*
X54248Y737460D01*
X54313Y737428D01*
X54379Y737399D01*
X54446Y737373D01*
X54515Y737351D01*
X54585Y737333D01*
X54656Y737318D01*
X54727Y737307D01*
X54799Y737300D01*
X54871Y737297D01*
X54943Y737298D01*
X55016Y737303D01*
X55087Y737311D01*
X55159Y737323D01*
X55229Y737339D01*
X55298Y737359D01*
X55367Y737383D01*
X55434Y737410D01*
X55499Y737440D01*
X55563Y737474D01*
X55625Y737512D01*
X55685Y737552D01*
X55742Y737596D01*
X55797Y737643D01*
X55850Y737693D01*
X55899Y737745D01*
X55946Y737800D01*
X55990Y737857D01*
X56031Y737917D01*
X56068Y737979D01*
X56103Y738043D01*
X56133Y738108D01*
X56161Y738175D01*
X56184Y738243D01*
X56204Y738313D01*
X56220Y738383D01*
X56233Y738454D01*
X56241Y738526D01*
X56246Y738598D01*
X56247Y738670D01*
X56246Y738671D02*
X56242Y738822D01*
X56234Y738973D01*
X56223Y739124D01*
X56207Y739275D01*
X56187Y739425D01*
X56164Y739575D01*
X56137Y739724D01*
X56106Y739872D01*
X56071Y740020D01*
X56033Y740166D01*
X55990Y740312D01*
X55944Y740456D01*
X55895Y740599D01*
X55842Y740741D01*
X55785Y740881D01*
X55724Y741020D01*
X52592Y740759D02*
X52564Y740825D01*
X52531Y740890D01*
X52496Y740953D01*
X52457Y741014D01*
X52415Y741073D01*
X52370Y741129D01*
X52322Y741183D01*
X52271Y741234D01*
X52218Y741283D01*
X52161Y741328D01*
X52103Y741371D01*
X52043Y741410D01*
X51980Y741447D01*
X51915Y741479D01*
X51849Y741508D01*
X51782Y741534D01*
X51713Y741556D01*
X51643Y741574D01*
X51572Y741589D01*
X51501Y741600D01*
X51429Y741607D01*
X51357Y741610D01*
X51285Y741609D01*
X51212Y741604D01*
X51141Y741596D01*
X51069Y741584D01*
X50999Y741568D01*
X50930Y741548D01*
X50861Y741524D01*
X50794Y741497D01*
X50729Y741467D01*
X50665Y741433D01*
X50603Y741395D01*
X50543Y741355D01*
X50486Y741311D01*
X50431Y741264D01*
X50378Y741214D01*
X50329Y741162D01*
X50282Y741107D01*
X50238Y741050D01*
X50197Y740990D01*
X50160Y740928D01*
X50125Y740864D01*
X50095Y740799D01*
X50067Y740732D01*
X50044Y740664D01*
X50024Y740594D01*
X50008Y740524D01*
X49995Y740453D01*
X49987Y740381D01*
X49982Y740309D01*
X49981Y740237D01*
X49986Y740027D01*
X49997Y739818D01*
X50012Y739609D01*
X50032Y739401D01*
X50058Y739193D01*
X50088Y738986D01*
X50123Y738779D01*
X50163Y738574D01*
X50207Y738369D01*
X50257Y738166D01*
X50311Y737963D01*
X50371Y737762D01*
X50434Y737563D01*
X50503Y737365D01*
X52069Y745290D02*
X54158Y745290D01*
X54158Y745291D02*
X54248Y745293D01*
X54337Y745299D01*
X54427Y745308D01*
X54516Y745322D01*
X54604Y745339D01*
X54691Y745360D01*
X54778Y745385D01*
X54863Y745414D01*
X54947Y745446D01*
X55029Y745481D01*
X55110Y745521D01*
X55189Y745563D01*
X55266Y745609D01*
X55341Y745659D01*
X55414Y745711D01*
X55485Y745767D01*
X55553Y745825D01*
X55618Y745887D01*
X55681Y745951D01*
X55741Y746018D01*
X55798Y746087D01*
X55852Y746159D01*
X55903Y746233D01*
X55951Y746309D01*
X55995Y746387D01*
X56036Y746467D01*
X56074Y746549D01*
X56108Y746632D01*
X56138Y746717D01*
X56165Y746803D01*
X56188Y746889D01*
X56207Y746977D01*
X56222Y747066D01*
X56234Y747155D01*
X56242Y747244D01*
X56246Y747334D01*
X56246Y747424D01*
X56242Y747514D01*
X56234Y747603D01*
X56222Y747692D01*
X56207Y747781D01*
X56188Y747869D01*
X56165Y747955D01*
X56138Y748041D01*
X56108Y748126D01*
X56074Y748209D01*
X56036Y748291D01*
X55995Y748371D01*
X55951Y748449D01*
X55903Y748525D01*
X55852Y748599D01*
X55798Y748671D01*
X55741Y748740D01*
X55681Y748807D01*
X55618Y748871D01*
X55553Y748933D01*
X55485Y748991D01*
X55414Y749047D01*
X55341Y749099D01*
X55266Y749149D01*
X55189Y749195D01*
X55110Y749237D01*
X55029Y749277D01*
X54947Y749312D01*
X54863Y749344D01*
X54778Y749373D01*
X54691Y749398D01*
X54604Y749419D01*
X54516Y749436D01*
X54427Y749450D01*
X54337Y749459D01*
X54248Y749465D01*
X54158Y749467D01*
X52069Y749467D01*
X51979Y749465D01*
X51890Y749459D01*
X51800Y749450D01*
X51711Y749436D01*
X51623Y749419D01*
X51536Y749398D01*
X51449Y749373D01*
X51364Y749344D01*
X51280Y749312D01*
X51198Y749277D01*
X51117Y749237D01*
X51038Y749195D01*
X50961Y749149D01*
X50886Y749099D01*
X50813Y749047D01*
X50742Y748991D01*
X50674Y748933D01*
X50609Y748871D01*
X50546Y748807D01*
X50486Y748740D01*
X50429Y748671D01*
X50375Y748599D01*
X50324Y748525D01*
X50276Y748449D01*
X50232Y748371D01*
X50191Y748291D01*
X50153Y748209D01*
X50119Y748126D01*
X50089Y748041D01*
X50062Y747955D01*
X50039Y747869D01*
X50020Y747781D01*
X50005Y747692D01*
X49993Y747603D01*
X49985Y747514D01*
X49981Y747424D01*
X49981Y747334D01*
X49985Y747244D01*
X49993Y747155D01*
X50005Y747066D01*
X50020Y746977D01*
X50039Y746889D01*
X50062Y746803D01*
X50089Y746717D01*
X50119Y746632D01*
X50153Y746549D01*
X50191Y746467D01*
X50232Y746387D01*
X50276Y746309D01*
X50324Y746233D01*
X50375Y746159D01*
X50429Y746087D01*
X50486Y746018D01*
X50546Y745951D01*
X50609Y745887D01*
X50674Y745825D01*
X50742Y745767D01*
X50813Y745711D01*
X50886Y745659D01*
X50961Y745609D01*
X51038Y745563D01*
X51117Y745521D01*
X51198Y745481D01*
X51280Y745446D01*
X51364Y745414D01*
X51449Y745385D01*
X51536Y745360D01*
X51623Y745339D01*
X51711Y745322D01*
X51800Y745308D01*
X51890Y745299D01*
X51979Y745293D01*
X52069Y745291D01*
X51547Y753340D02*
X59379Y753340D01*
X51547Y753341D02*
X51470Y753343D01*
X51394Y753349D01*
X51317Y753358D01*
X51241Y753371D01*
X51166Y753388D01*
X51092Y753408D01*
X51019Y753433D01*
X50948Y753460D01*
X50877Y753491D01*
X50809Y753526D01*
X50742Y753564D01*
X50677Y753605D01*
X50614Y753649D01*
X50554Y753696D01*
X50495Y753747D01*
X50440Y753800D01*
X50387Y753855D01*
X50336Y753914D01*
X50289Y753974D01*
X50245Y754037D01*
X50204Y754102D01*
X50166Y754169D01*
X50131Y754237D01*
X50100Y754308D01*
X50073Y754379D01*
X50048Y754452D01*
X50028Y754526D01*
X50011Y754601D01*
X49998Y754677D01*
X49989Y754754D01*
X49983Y754830D01*
X49981Y754907D01*
X49981Y759658D02*
X49981Y762268D01*
X49981Y759658D02*
X49983Y759581D01*
X49989Y759505D01*
X49998Y759428D01*
X50011Y759352D01*
X50028Y759277D01*
X50048Y759203D01*
X50073Y759130D01*
X50100Y759059D01*
X50131Y758988D01*
X50166Y758920D01*
X50204Y758853D01*
X50245Y758788D01*
X50289Y758725D01*
X50336Y758665D01*
X50387Y758606D01*
X50440Y758551D01*
X50495Y758498D01*
X50554Y758447D01*
X50614Y758400D01*
X50677Y758356D01*
X50742Y758315D01*
X50809Y758277D01*
X50877Y758242D01*
X50948Y758211D01*
X51019Y758184D01*
X51092Y758159D01*
X51166Y758139D01*
X51241Y758122D01*
X51317Y758109D01*
X51394Y758100D01*
X51470Y758094D01*
X51547Y758092D01*
X54158Y758092D01*
X54248Y758094D01*
X54337Y758100D01*
X54427Y758109D01*
X54516Y758123D01*
X54604Y758140D01*
X54691Y758161D01*
X54778Y758186D01*
X54863Y758215D01*
X54947Y758247D01*
X55029Y758282D01*
X55110Y758322D01*
X55189Y758364D01*
X55266Y758410D01*
X55341Y758460D01*
X55414Y758512D01*
X55485Y758568D01*
X55553Y758626D01*
X55618Y758688D01*
X55681Y758752D01*
X55741Y758819D01*
X55798Y758888D01*
X55852Y758960D01*
X55903Y759034D01*
X55951Y759110D01*
X55995Y759188D01*
X56036Y759268D01*
X56074Y759350D01*
X56108Y759433D01*
X56138Y759518D01*
X56165Y759604D01*
X56188Y759690D01*
X56207Y759778D01*
X56222Y759867D01*
X56234Y759956D01*
X56242Y760045D01*
X56246Y760135D01*
X56246Y760225D01*
X56242Y760315D01*
X56234Y760404D01*
X56222Y760493D01*
X56207Y760582D01*
X56188Y760670D01*
X56165Y760756D01*
X56138Y760842D01*
X56108Y760927D01*
X56074Y761010D01*
X56036Y761092D01*
X55995Y761172D01*
X55951Y761250D01*
X55903Y761326D01*
X55852Y761400D01*
X55798Y761472D01*
X55741Y761541D01*
X55681Y761608D01*
X55618Y761672D01*
X55553Y761734D01*
X55485Y761792D01*
X55414Y761848D01*
X55341Y761900D01*
X55266Y761950D01*
X55189Y761996D01*
X55110Y762038D01*
X55029Y762078D01*
X54947Y762113D01*
X54863Y762145D01*
X54778Y762174D01*
X54691Y762199D01*
X54604Y762220D01*
X54516Y762237D01*
X54427Y762251D01*
X54337Y762260D01*
X54248Y762266D01*
X54158Y762268D01*
X53114Y762268D01*
X53114Y758092D01*
X53636Y766800D02*
X52592Y769410D01*
X53636Y766799D02*
X53664Y766733D01*
X53697Y766668D01*
X53732Y766605D01*
X53771Y766544D01*
X53813Y766485D01*
X53858Y766429D01*
X53906Y766375D01*
X53957Y766324D01*
X54010Y766275D01*
X54067Y766230D01*
X54125Y766187D01*
X54185Y766148D01*
X54248Y766111D01*
X54313Y766079D01*
X54379Y766050D01*
X54446Y766024D01*
X54515Y766002D01*
X54585Y765984D01*
X54656Y765969D01*
X54727Y765958D01*
X54799Y765951D01*
X54871Y765948D01*
X54943Y765949D01*
X55016Y765954D01*
X55087Y765962D01*
X55159Y765974D01*
X55229Y765990D01*
X55298Y766010D01*
X55367Y766034D01*
X55434Y766061D01*
X55499Y766091D01*
X55563Y766125D01*
X55625Y766163D01*
X55685Y766203D01*
X55742Y766247D01*
X55797Y766294D01*
X55850Y766344D01*
X55899Y766396D01*
X55946Y766451D01*
X55990Y766508D01*
X56031Y766568D01*
X56068Y766630D01*
X56103Y766694D01*
X56133Y766759D01*
X56161Y766826D01*
X56184Y766894D01*
X56204Y766964D01*
X56220Y767034D01*
X56233Y767105D01*
X56241Y767177D01*
X56246Y767249D01*
X56247Y767321D01*
X56246Y767322D02*
X56242Y767473D01*
X56234Y767624D01*
X56223Y767775D01*
X56207Y767926D01*
X56187Y768076D01*
X56164Y768226D01*
X56137Y768375D01*
X56106Y768523D01*
X56071Y768671D01*
X56033Y768817D01*
X55990Y768963D01*
X55944Y769107D01*
X55895Y769250D01*
X55842Y769392D01*
X55785Y769532D01*
X55724Y769671D01*
X52592Y769410D02*
X52564Y769476D01*
X52531Y769541D01*
X52496Y769604D01*
X52457Y769665D01*
X52415Y769724D01*
X52370Y769780D01*
X52322Y769834D01*
X52271Y769885D01*
X52218Y769934D01*
X52161Y769979D01*
X52103Y770022D01*
X52043Y770061D01*
X51980Y770098D01*
X51915Y770130D01*
X51849Y770159D01*
X51782Y770185D01*
X51713Y770207D01*
X51643Y770225D01*
X51572Y770240D01*
X51501Y770251D01*
X51429Y770258D01*
X51357Y770261D01*
X51285Y770260D01*
X51212Y770255D01*
X51141Y770247D01*
X51069Y770235D01*
X50999Y770219D01*
X50930Y770199D01*
X50861Y770175D01*
X50794Y770148D01*
X50729Y770118D01*
X50665Y770084D01*
X50603Y770046D01*
X50543Y770006D01*
X50486Y769962D01*
X50431Y769915D01*
X50378Y769865D01*
X50329Y769813D01*
X50282Y769758D01*
X50238Y769701D01*
X50197Y769641D01*
X50160Y769579D01*
X50125Y769515D01*
X50095Y769450D01*
X50067Y769383D01*
X50044Y769315D01*
X50024Y769245D01*
X50008Y769175D01*
X49995Y769104D01*
X49987Y769032D01*
X49982Y768960D01*
X49981Y768888D01*
X49986Y768678D01*
X49997Y768469D01*
X50012Y768260D01*
X50032Y768052D01*
X50058Y767844D01*
X50088Y767637D01*
X50123Y767430D01*
X50163Y767225D01*
X50207Y767020D01*
X50257Y766817D01*
X50311Y766614D01*
X50371Y766413D01*
X50434Y766214D01*
X50503Y766016D01*
X52592Y779210D02*
X59379Y779210D01*
X52592Y779210D02*
X52491Y779212D01*
X52390Y779218D01*
X52289Y779228D01*
X52189Y779241D01*
X52089Y779259D01*
X51990Y779280D01*
X51892Y779306D01*
X51795Y779335D01*
X51699Y779367D01*
X51605Y779404D01*
X51512Y779444D01*
X51420Y779488D01*
X51331Y779535D01*
X51243Y779586D01*
X51157Y779640D01*
X51074Y779697D01*
X50992Y779757D01*
X50914Y779821D01*
X50837Y779887D01*
X50764Y779957D01*
X50693Y780029D01*
X50625Y780104D01*
X50560Y780182D01*
X50498Y780262D01*
X50439Y780344D01*
X50383Y780429D01*
X50331Y780516D01*
X50282Y780604D01*
X50236Y780695D01*
X50195Y780787D01*
X50156Y780881D01*
X50122Y780976D01*
X50091Y781072D01*
X50064Y781170D01*
X50040Y781268D01*
X50021Y781368D01*
X50005Y781468D01*
X49993Y781568D01*
X49985Y781669D01*
X49981Y781770D01*
X49981Y781872D01*
X49985Y781973D01*
X49993Y782074D01*
X50005Y782174D01*
X50021Y782274D01*
X50040Y782374D01*
X50064Y782472D01*
X50091Y782570D01*
X50122Y782666D01*
X50156Y782761D01*
X50195Y782855D01*
X50236Y782947D01*
X50282Y783038D01*
X50331Y783127D01*
X50383Y783213D01*
X50439Y783298D01*
X50498Y783380D01*
X50560Y783460D01*
X50625Y783538D01*
X50693Y783613D01*
X50764Y783685D01*
X50837Y783755D01*
X50914Y783821D01*
X50992Y783885D01*
X51074Y783945D01*
X51157Y784002D01*
X51243Y784056D01*
X51331Y784107D01*
X51420Y784154D01*
X51512Y784198D01*
X51605Y784238D01*
X51699Y784275D01*
X51795Y784307D01*
X51892Y784336D01*
X51990Y784362D01*
X52089Y784383D01*
X52189Y784401D01*
X52289Y784414D01*
X52390Y784424D01*
X52491Y784430D01*
X52592Y784432D01*
X52592Y784431D02*
X59379Y784431D01*
X56246Y788876D02*
X49981Y788876D01*
X56246Y788876D02*
X56246Y791487D01*
X56244Y791564D01*
X56238Y791640D01*
X56229Y791717D01*
X56216Y791793D01*
X56199Y791868D01*
X56179Y791942D01*
X56154Y792015D01*
X56127Y792086D01*
X56096Y792157D01*
X56061Y792225D01*
X56023Y792292D01*
X55982Y792357D01*
X55938Y792420D01*
X55891Y792480D01*
X55840Y792539D01*
X55787Y792594D01*
X55732Y792647D01*
X55673Y792698D01*
X55613Y792745D01*
X55550Y792789D01*
X55485Y792830D01*
X55418Y792868D01*
X55350Y792903D01*
X55279Y792934D01*
X55208Y792961D01*
X55135Y792986D01*
X55061Y793006D01*
X54986Y793023D01*
X54910Y793036D01*
X54833Y793045D01*
X54757Y793051D01*
X54680Y793053D01*
X49981Y793053D01*
X51547Y797231D02*
X59379Y797231D01*
X51547Y797232D02*
X51470Y797234D01*
X51394Y797240D01*
X51317Y797249D01*
X51241Y797262D01*
X51166Y797279D01*
X51092Y797299D01*
X51019Y797324D01*
X50948Y797351D01*
X50877Y797382D01*
X50809Y797417D01*
X50742Y797455D01*
X50677Y797496D01*
X50614Y797540D01*
X50554Y797587D01*
X50495Y797638D01*
X50440Y797691D01*
X50387Y797746D01*
X50336Y797805D01*
X50289Y797865D01*
X50245Y797928D01*
X50204Y797993D01*
X50166Y798060D01*
X50131Y798128D01*
X50100Y798199D01*
X50073Y798270D01*
X50048Y798343D01*
X50028Y798417D01*
X50011Y798492D01*
X49998Y798568D01*
X49989Y798645D01*
X49983Y798721D01*
X49981Y798798D01*
X49981Y803549D02*
X49981Y806159D01*
X49981Y803549D02*
X49983Y803472D01*
X49989Y803396D01*
X49998Y803319D01*
X50011Y803243D01*
X50028Y803168D01*
X50048Y803094D01*
X50073Y803021D01*
X50100Y802950D01*
X50131Y802879D01*
X50166Y802811D01*
X50204Y802744D01*
X50245Y802679D01*
X50289Y802616D01*
X50336Y802556D01*
X50387Y802497D01*
X50440Y802442D01*
X50495Y802389D01*
X50554Y802338D01*
X50614Y802291D01*
X50677Y802247D01*
X50742Y802206D01*
X50809Y802168D01*
X50877Y802133D01*
X50948Y802102D01*
X51019Y802075D01*
X51092Y802050D01*
X51166Y802030D01*
X51241Y802013D01*
X51317Y802000D01*
X51394Y801991D01*
X51470Y801985D01*
X51547Y801983D01*
X54158Y801983D01*
X54248Y801985D01*
X54337Y801991D01*
X54427Y802000D01*
X54516Y802014D01*
X54604Y802031D01*
X54691Y802052D01*
X54778Y802077D01*
X54863Y802106D01*
X54947Y802138D01*
X55029Y802173D01*
X55110Y802213D01*
X55189Y802255D01*
X55266Y802301D01*
X55341Y802351D01*
X55414Y802403D01*
X55485Y802459D01*
X55553Y802517D01*
X55618Y802579D01*
X55681Y802643D01*
X55741Y802710D01*
X55798Y802779D01*
X55852Y802851D01*
X55903Y802925D01*
X55951Y803001D01*
X55995Y803079D01*
X56036Y803159D01*
X56074Y803241D01*
X56108Y803324D01*
X56138Y803409D01*
X56165Y803495D01*
X56188Y803581D01*
X56207Y803669D01*
X56222Y803758D01*
X56234Y803847D01*
X56242Y803936D01*
X56246Y804026D01*
X56246Y804116D01*
X56242Y804206D01*
X56234Y804295D01*
X56222Y804384D01*
X56207Y804473D01*
X56188Y804561D01*
X56165Y804647D01*
X56138Y804733D01*
X56108Y804818D01*
X56074Y804901D01*
X56036Y804983D01*
X55995Y805063D01*
X55951Y805141D01*
X55903Y805217D01*
X55852Y805291D01*
X55798Y805363D01*
X55741Y805432D01*
X55681Y805499D01*
X55618Y805563D01*
X55553Y805625D01*
X55485Y805683D01*
X55414Y805739D01*
X55341Y805791D01*
X55266Y805841D01*
X55189Y805887D01*
X55110Y805929D01*
X55029Y805969D01*
X54947Y806004D01*
X54863Y806036D01*
X54778Y806065D01*
X54691Y806090D01*
X54604Y806111D01*
X54516Y806128D01*
X54427Y806142D01*
X54337Y806151D01*
X54248Y806157D01*
X54158Y806159D01*
X53114Y806159D01*
X53114Y801983D01*
X53636Y811689D02*
X53636Y814039D01*
X53635Y811689D02*
X53633Y811605D01*
X53627Y811520D01*
X53617Y811437D01*
X53604Y811353D01*
X53586Y811271D01*
X53565Y811189D01*
X53540Y811108D01*
X53512Y811029D01*
X53479Y810951D01*
X53443Y810875D01*
X53404Y810800D01*
X53361Y810727D01*
X53315Y810656D01*
X53266Y810588D01*
X53214Y810522D01*
X53158Y810458D01*
X53100Y810397D01*
X53039Y810339D01*
X52975Y810283D01*
X52909Y810231D01*
X52841Y810182D01*
X52770Y810136D01*
X52697Y810093D01*
X52622Y810054D01*
X52546Y810018D01*
X52468Y809985D01*
X52389Y809957D01*
X52308Y809932D01*
X52226Y809911D01*
X52144Y809893D01*
X52060Y809880D01*
X51977Y809870D01*
X51892Y809864D01*
X51808Y809862D01*
X51724Y809864D01*
X51639Y809870D01*
X51556Y809880D01*
X51472Y809893D01*
X51390Y809911D01*
X51308Y809932D01*
X51227Y809957D01*
X51148Y809985D01*
X51070Y810018D01*
X50994Y810054D01*
X50919Y810093D01*
X50846Y810136D01*
X50775Y810182D01*
X50707Y810231D01*
X50641Y810283D01*
X50577Y810339D01*
X50516Y810397D01*
X50458Y810458D01*
X50402Y810522D01*
X50350Y810588D01*
X50301Y810656D01*
X50255Y810727D01*
X50212Y810800D01*
X50173Y810875D01*
X50137Y810951D01*
X50104Y811029D01*
X50076Y811108D01*
X50051Y811189D01*
X50030Y811271D01*
X50012Y811353D01*
X49999Y811437D01*
X49989Y811520D01*
X49983Y811605D01*
X49981Y811689D01*
X49981Y814039D01*
X54680Y814039D01*
X54680Y814038D02*
X54757Y814036D01*
X54833Y814030D01*
X54910Y814021D01*
X54986Y814008D01*
X55061Y813991D01*
X55135Y813971D01*
X55208Y813946D01*
X55279Y813919D01*
X55350Y813888D01*
X55418Y813853D01*
X55485Y813815D01*
X55550Y813774D01*
X55613Y813730D01*
X55673Y813683D01*
X55732Y813632D01*
X55787Y813579D01*
X55840Y813524D01*
X55891Y813465D01*
X55938Y813405D01*
X55982Y813342D01*
X56023Y813277D01*
X56061Y813210D01*
X56096Y813142D01*
X56127Y813071D01*
X56154Y813000D01*
X56179Y812927D01*
X56199Y812853D01*
X56216Y812778D01*
X56229Y812702D01*
X56238Y812625D01*
X56244Y812549D01*
X56246Y812472D01*
X56246Y810384D01*
X53636Y818920D02*
X52592Y821531D01*
X53636Y818920D02*
X53664Y818854D01*
X53697Y818789D01*
X53732Y818726D01*
X53771Y818665D01*
X53813Y818606D01*
X53858Y818550D01*
X53906Y818496D01*
X53957Y818445D01*
X54010Y818396D01*
X54067Y818351D01*
X54125Y818308D01*
X54185Y818269D01*
X54248Y818232D01*
X54313Y818200D01*
X54379Y818171D01*
X54446Y818145D01*
X54515Y818123D01*
X54585Y818105D01*
X54656Y818090D01*
X54727Y818079D01*
X54799Y818072D01*
X54871Y818069D01*
X54943Y818070D01*
X55016Y818075D01*
X55087Y818083D01*
X55159Y818095D01*
X55229Y818111D01*
X55298Y818131D01*
X55367Y818155D01*
X55434Y818182D01*
X55499Y818212D01*
X55563Y818246D01*
X55625Y818284D01*
X55685Y818324D01*
X55742Y818368D01*
X55797Y818415D01*
X55850Y818465D01*
X55899Y818517D01*
X55946Y818572D01*
X55990Y818629D01*
X56031Y818689D01*
X56068Y818751D01*
X56103Y818815D01*
X56133Y818880D01*
X56161Y818947D01*
X56184Y819015D01*
X56204Y819085D01*
X56220Y819155D01*
X56233Y819226D01*
X56241Y819298D01*
X56246Y819370D01*
X56247Y819442D01*
X56246Y819443D02*
X56242Y819594D01*
X56234Y819745D01*
X56223Y819896D01*
X56207Y820047D01*
X56187Y820197D01*
X56164Y820347D01*
X56137Y820496D01*
X56106Y820644D01*
X56071Y820792D01*
X56033Y820938D01*
X55990Y821084D01*
X55944Y821228D01*
X55895Y821371D01*
X55842Y821513D01*
X55785Y821653D01*
X55724Y821792D01*
X52592Y821531D02*
X52564Y821597D01*
X52531Y821662D01*
X52496Y821725D01*
X52457Y821786D01*
X52415Y821845D01*
X52370Y821901D01*
X52322Y821955D01*
X52271Y822006D01*
X52218Y822055D01*
X52161Y822100D01*
X52103Y822143D01*
X52043Y822182D01*
X51980Y822219D01*
X51915Y822251D01*
X51849Y822280D01*
X51782Y822306D01*
X51713Y822328D01*
X51643Y822346D01*
X51572Y822361D01*
X51501Y822372D01*
X51429Y822379D01*
X51357Y822382D01*
X51285Y822381D01*
X51212Y822376D01*
X51141Y822368D01*
X51069Y822356D01*
X50999Y822340D01*
X50930Y822320D01*
X50861Y822296D01*
X50794Y822269D01*
X50729Y822239D01*
X50665Y822205D01*
X50603Y822167D01*
X50543Y822127D01*
X50486Y822083D01*
X50431Y822036D01*
X50378Y821986D01*
X50329Y821934D01*
X50282Y821879D01*
X50238Y821822D01*
X50197Y821762D01*
X50160Y821700D01*
X50125Y821636D01*
X50095Y821571D01*
X50067Y821504D01*
X50044Y821436D01*
X50024Y821366D01*
X50008Y821296D01*
X49995Y821225D01*
X49987Y821153D01*
X49982Y821081D01*
X49981Y821009D01*
X49986Y820799D01*
X49997Y820590D01*
X50012Y820381D01*
X50032Y820173D01*
X50058Y819965D01*
X50088Y819758D01*
X50123Y819551D01*
X50163Y819346D01*
X50207Y819141D01*
X50257Y818938D01*
X50311Y818735D01*
X50371Y818534D01*
X50434Y818335D01*
X50503Y818137D01*
X49981Y826366D02*
X59379Y826366D01*
X56246Y826366D02*
X56246Y828977D01*
X56244Y829054D01*
X56238Y829130D01*
X56229Y829207D01*
X56216Y829283D01*
X56199Y829358D01*
X56179Y829432D01*
X56154Y829505D01*
X56127Y829576D01*
X56096Y829647D01*
X56061Y829715D01*
X56023Y829782D01*
X55982Y829847D01*
X55938Y829910D01*
X55891Y829970D01*
X55840Y830029D01*
X55787Y830084D01*
X55732Y830137D01*
X55673Y830188D01*
X55613Y830235D01*
X55550Y830279D01*
X55485Y830320D01*
X55418Y830358D01*
X55350Y830393D01*
X55279Y830424D01*
X55208Y830451D01*
X55135Y830476D01*
X55061Y830496D01*
X54986Y830513D01*
X54910Y830526D01*
X54833Y830535D01*
X54757Y830541D01*
X54680Y830543D01*
X49981Y830543D01*
X49981Y836162D02*
X49981Y838773D01*
X49981Y836162D02*
X49983Y836085D01*
X49989Y836009D01*
X49998Y835932D01*
X50011Y835856D01*
X50028Y835781D01*
X50048Y835707D01*
X50073Y835634D01*
X50100Y835563D01*
X50131Y835492D01*
X50166Y835424D01*
X50204Y835357D01*
X50245Y835292D01*
X50289Y835229D01*
X50336Y835169D01*
X50387Y835110D01*
X50440Y835055D01*
X50495Y835002D01*
X50554Y834951D01*
X50614Y834904D01*
X50677Y834860D01*
X50742Y834819D01*
X50809Y834781D01*
X50877Y834746D01*
X50948Y834715D01*
X51019Y834688D01*
X51092Y834663D01*
X51166Y834643D01*
X51241Y834626D01*
X51317Y834613D01*
X51394Y834604D01*
X51470Y834598D01*
X51547Y834596D01*
X54158Y834596D01*
X54248Y834598D01*
X54337Y834604D01*
X54427Y834613D01*
X54516Y834627D01*
X54604Y834644D01*
X54691Y834665D01*
X54778Y834690D01*
X54863Y834719D01*
X54947Y834751D01*
X55029Y834786D01*
X55110Y834826D01*
X55189Y834868D01*
X55266Y834914D01*
X55341Y834964D01*
X55414Y835016D01*
X55485Y835072D01*
X55553Y835130D01*
X55618Y835192D01*
X55681Y835256D01*
X55741Y835323D01*
X55798Y835392D01*
X55852Y835464D01*
X55903Y835538D01*
X55951Y835614D01*
X55995Y835692D01*
X56036Y835772D01*
X56074Y835854D01*
X56108Y835937D01*
X56138Y836022D01*
X56165Y836108D01*
X56188Y836194D01*
X56207Y836282D01*
X56222Y836371D01*
X56234Y836460D01*
X56242Y836549D01*
X56246Y836639D01*
X56246Y836729D01*
X56242Y836819D01*
X56234Y836908D01*
X56222Y836997D01*
X56207Y837086D01*
X56188Y837174D01*
X56165Y837260D01*
X56138Y837346D01*
X56108Y837431D01*
X56074Y837514D01*
X56036Y837596D01*
X55995Y837676D01*
X55951Y837754D01*
X55903Y837830D01*
X55852Y837904D01*
X55798Y837976D01*
X55741Y838045D01*
X55681Y838112D01*
X55618Y838176D01*
X55553Y838238D01*
X55485Y838296D01*
X55414Y838352D01*
X55341Y838404D01*
X55266Y838454D01*
X55189Y838500D01*
X55110Y838542D01*
X55029Y838582D01*
X54947Y838617D01*
X54863Y838649D01*
X54778Y838678D01*
X54691Y838703D01*
X54604Y838724D01*
X54516Y838741D01*
X54427Y838755D01*
X54337Y838764D01*
X54248Y838770D01*
X54158Y838772D01*
X54158Y838773D02*
X53114Y838773D01*
X53114Y834596D01*
X49981Y846652D02*
X59379Y846652D01*
X49981Y846652D02*
X49981Y844041D01*
X49983Y843964D01*
X49989Y843888D01*
X49998Y843811D01*
X50011Y843735D01*
X50028Y843660D01*
X50048Y843586D01*
X50073Y843513D01*
X50100Y843442D01*
X50131Y843371D01*
X50166Y843303D01*
X50204Y843236D01*
X50245Y843171D01*
X50289Y843108D01*
X50336Y843048D01*
X50387Y842989D01*
X50440Y842934D01*
X50495Y842881D01*
X50554Y842830D01*
X50614Y842783D01*
X50677Y842739D01*
X50742Y842698D01*
X50809Y842660D01*
X50877Y842625D01*
X50948Y842594D01*
X51019Y842567D01*
X51092Y842542D01*
X51166Y842522D01*
X51241Y842505D01*
X51317Y842492D01*
X51394Y842483D01*
X51470Y842477D01*
X51547Y842475D01*
X54680Y842475D01*
X54757Y842477D01*
X54833Y842483D01*
X54910Y842492D01*
X54986Y842505D01*
X55061Y842522D01*
X55135Y842542D01*
X55208Y842567D01*
X55279Y842594D01*
X55350Y842625D01*
X55418Y842660D01*
X55485Y842698D01*
X55550Y842739D01*
X55613Y842783D01*
X55673Y842830D01*
X55732Y842881D01*
X55787Y842934D01*
X55840Y842989D01*
X55891Y843048D01*
X55938Y843108D01*
X55982Y843171D01*
X56023Y843236D01*
X56061Y843303D01*
X56096Y843371D01*
X56127Y843442D01*
X56154Y843513D01*
X56179Y843586D01*
X56199Y843660D01*
X56216Y843735D01*
X56229Y843811D01*
X56238Y843888D01*
X56244Y843964D01*
X56246Y844041D01*
X56246Y846652D01*
D12*
X90000Y600000D03*
D11*
X52270Y563292D02*
X52365Y563290D01*
X52459Y563284D01*
X52553Y563275D01*
X52647Y563262D01*
X52740Y563245D01*
X52832Y563224D01*
X52924Y563199D01*
X53014Y563171D01*
X53103Y563139D01*
X53191Y563104D01*
X53277Y563065D01*
X53362Y563023D01*
X53445Y562977D01*
X53526Y562928D01*
X53605Y562876D01*
X53682Y562821D01*
X53756Y562762D01*
X53828Y562701D01*
X53898Y562637D01*
X53965Y562570D01*
X54029Y562500D01*
X54090Y562428D01*
X54149Y562354D01*
X54204Y562277D01*
X54256Y562198D01*
X54305Y562117D01*
X54351Y562034D01*
X54393Y561949D01*
X54432Y561863D01*
X54467Y561775D01*
X54499Y561686D01*
X54527Y561596D01*
X54552Y561504D01*
X54573Y561412D01*
X54590Y561319D01*
X54603Y561225D01*
X54612Y561131D01*
X54618Y561037D01*
X54620Y560942D01*
X54619Y560942D02*
X54617Y560834D01*
X54611Y560725D01*
X54601Y560617D01*
X54588Y560510D01*
X54570Y560403D01*
X54549Y560296D01*
X54524Y560191D01*
X54495Y560086D01*
X54463Y559983D01*
X54426Y559881D01*
X54386Y559780D01*
X54343Y559681D01*
X54296Y559583D01*
X54245Y559487D01*
X54191Y559393D01*
X54134Y559301D01*
X54073Y559211D01*
X54009Y559123D01*
X53943Y559038D01*
X53873Y558955D01*
X53800Y558875D01*
X53724Y558797D01*
X53646Y558722D01*
X53565Y558650D01*
X53481Y558581D01*
X53395Y558515D01*
X53307Y558452D01*
X53216Y558393D01*
X53124Y558336D01*
X53029Y558283D01*
X52933Y558234D01*
X52834Y558188D01*
X52735Y558145D01*
X52633Y558106D01*
X52531Y558071D01*
X50442Y562509D02*
X50511Y562578D01*
X50582Y562644D01*
X50655Y562708D01*
X50731Y562769D01*
X50810Y562827D01*
X50890Y562881D01*
X50973Y562933D01*
X51057Y562981D01*
X51143Y563027D01*
X51231Y563068D01*
X51321Y563107D01*
X51412Y563142D01*
X51504Y563173D01*
X51597Y563201D01*
X51691Y563225D01*
X51786Y563245D01*
X51882Y563262D01*
X51979Y563275D01*
X52076Y563284D01*
X52173Y563290D01*
X52270Y563292D01*
X50442Y562508D02*
X45221Y558070D01*
X45221Y563292D01*
X45221Y567214D02*
X45221Y570347D01*
X45223Y570436D01*
X45229Y570524D01*
X45238Y570612D01*
X45251Y570700D01*
X45268Y570787D01*
X45288Y570873D01*
X45313Y570958D01*
X45340Y571043D01*
X45372Y571126D01*
X45406Y571207D01*
X45445Y571287D01*
X45486Y571365D01*
X45531Y571442D01*
X45579Y571516D01*
X45630Y571589D01*
X45684Y571659D01*
X45742Y571726D01*
X45802Y571792D01*
X45864Y571854D01*
X45930Y571914D01*
X45997Y571972D01*
X46067Y572026D01*
X46140Y572077D01*
X46214Y572125D01*
X46291Y572170D01*
X46369Y572211D01*
X46449Y572250D01*
X46530Y572284D01*
X46613Y572316D01*
X46698Y572343D01*
X46783Y572368D01*
X46869Y572388D01*
X46956Y572405D01*
X47044Y572418D01*
X47132Y572427D01*
X47220Y572433D01*
X47309Y572435D01*
X47309Y572436D02*
X48354Y572436D01*
X48354Y572435D02*
X48443Y572433D01*
X48531Y572427D01*
X48619Y572418D01*
X48707Y572405D01*
X48794Y572388D01*
X48880Y572368D01*
X48965Y572343D01*
X49050Y572316D01*
X49133Y572284D01*
X49214Y572250D01*
X49294Y572211D01*
X49372Y572170D01*
X49449Y572125D01*
X49523Y572077D01*
X49596Y572026D01*
X49666Y571972D01*
X49733Y571914D01*
X49799Y571854D01*
X49861Y571792D01*
X49921Y571726D01*
X49979Y571659D01*
X50033Y571589D01*
X50084Y571516D01*
X50132Y571442D01*
X50177Y571365D01*
X50218Y571287D01*
X50257Y571207D01*
X50291Y571126D01*
X50323Y571043D01*
X50350Y570958D01*
X50375Y570873D01*
X50395Y570787D01*
X50412Y570700D01*
X50425Y570612D01*
X50434Y570524D01*
X50440Y570436D01*
X50442Y570347D01*
X50442Y567214D01*
X54619Y567214D01*
X54619Y572436D01*
X55663Y580143D02*
X44177Y575966D01*
X52531Y583674D02*
X54619Y586284D01*
X45221Y586284D01*
X45221Y583674D02*
X45221Y588895D01*
X49920Y592817D02*
X50105Y592819D01*
X50290Y592826D01*
X50474Y592837D01*
X50658Y592852D01*
X50842Y592872D01*
X51026Y592896D01*
X51208Y592925D01*
X51390Y592958D01*
X51571Y592995D01*
X51751Y593037D01*
X51931Y593083D01*
X52109Y593133D01*
X52285Y593187D01*
X52461Y593246D01*
X52635Y593308D01*
X52807Y593375D01*
X52978Y593446D01*
X53147Y593521D01*
X53314Y593600D01*
X53394Y593630D01*
X53473Y593663D01*
X53550Y593700D01*
X53626Y593740D01*
X53700Y593783D01*
X53772Y593829D01*
X53841Y593879D01*
X53909Y593931D01*
X53974Y593987D01*
X54037Y594045D01*
X54096Y594107D01*
X54154Y594170D01*
X54208Y594237D01*
X54259Y594305D01*
X54307Y594376D01*
X54352Y594449D01*
X54394Y594523D01*
X54432Y594600D01*
X54467Y594678D01*
X54499Y594757D01*
X54527Y594838D01*
X54551Y594920D01*
X54572Y595004D01*
X54589Y595087D01*
X54602Y595172D01*
X54611Y595257D01*
X54617Y595342D01*
X54619Y595428D01*
X54617Y595514D01*
X54611Y595599D01*
X54602Y595684D01*
X54589Y595769D01*
X54572Y595852D01*
X54551Y595936D01*
X54527Y596018D01*
X54499Y596099D01*
X54467Y596178D01*
X54432Y596256D01*
X54394Y596333D01*
X54352Y596407D01*
X54307Y596480D01*
X54259Y596551D01*
X54208Y596619D01*
X54154Y596686D01*
X54096Y596749D01*
X54037Y596811D01*
X53974Y596869D01*
X53909Y596925D01*
X53841Y596977D01*
X53772Y597027D01*
X53700Y597073D01*
X53626Y597116D01*
X53550Y597156D01*
X53473Y597193D01*
X53394Y597226D01*
X53314Y597256D01*
X53147Y597335D01*
X52978Y597410D01*
X52807Y597481D01*
X52635Y597548D01*
X52461Y597610D01*
X52285Y597669D01*
X52109Y597723D01*
X51931Y597773D01*
X51751Y597819D01*
X51571Y597861D01*
X51390Y597898D01*
X51208Y597931D01*
X51026Y597960D01*
X50842Y597984D01*
X50658Y598004D01*
X50474Y598019D01*
X50290Y598030D01*
X50105Y598037D01*
X49920Y598039D01*
X49920Y592817D02*
X49735Y592819D01*
X49550Y592826D01*
X49366Y592837D01*
X49182Y592852D01*
X48998Y592872D01*
X48814Y592896D01*
X48632Y592925D01*
X48450Y592958D01*
X48269Y592995D01*
X48089Y593037D01*
X47909Y593083D01*
X47731Y593133D01*
X47555Y593187D01*
X47379Y593246D01*
X47205Y593308D01*
X47033Y593375D01*
X46862Y593446D01*
X46693Y593521D01*
X46526Y593600D01*
X46446Y593630D01*
X46367Y593663D01*
X46290Y593700D01*
X46214Y593740D01*
X46140Y593783D01*
X46068Y593829D01*
X45999Y593879D01*
X45931Y593932D01*
X45866Y593987D01*
X45803Y594046D01*
X45744Y594107D01*
X45686Y594170D01*
X45632Y594237D01*
X45581Y594305D01*
X45533Y594376D01*
X45488Y594449D01*
X45446Y594523D01*
X45408Y594600D01*
X45373Y594678D01*
X45341Y594757D01*
X45313Y594838D01*
X45289Y594920D01*
X45268Y595004D01*
X45251Y595087D01*
X45238Y595172D01*
X45229Y595257D01*
X45223Y595342D01*
X45221Y595428D01*
X46526Y597256D02*
X46693Y597335D01*
X46862Y597410D01*
X47033Y597481D01*
X47205Y597548D01*
X47379Y597610D01*
X47555Y597669D01*
X47731Y597723D01*
X47909Y597773D01*
X48089Y597819D01*
X48269Y597861D01*
X48450Y597898D01*
X48632Y597931D01*
X48814Y597960D01*
X48998Y597984D01*
X49182Y598004D01*
X49366Y598019D01*
X49550Y598030D01*
X49735Y598037D01*
X49920Y598039D01*
X46526Y597256D02*
X46446Y597226D01*
X46367Y597193D01*
X46290Y597156D01*
X46214Y597116D01*
X46140Y597073D01*
X46068Y597027D01*
X45999Y596977D01*
X45931Y596925D01*
X45866Y596869D01*
X45803Y596811D01*
X45744Y596749D01*
X45686Y596686D01*
X45632Y596619D01*
X45581Y596551D01*
X45533Y596480D01*
X45488Y596407D01*
X45446Y596333D01*
X45408Y596256D01*
X45373Y596178D01*
X45341Y596099D01*
X45313Y596018D01*
X45289Y595936D01*
X45268Y595852D01*
X45251Y595769D01*
X45238Y595684D01*
X45229Y595599D01*
X45223Y595514D01*
X45221Y595428D01*
X47309Y593340D02*
X52531Y597516D01*
X55663Y605746D02*
X44177Y601569D01*
X54620Y612148D02*
X54618Y612243D01*
X54612Y612337D01*
X54603Y612431D01*
X54590Y612525D01*
X54573Y612618D01*
X54552Y612710D01*
X54527Y612802D01*
X54499Y612892D01*
X54467Y612981D01*
X54432Y613069D01*
X54393Y613155D01*
X54351Y613240D01*
X54305Y613323D01*
X54256Y613404D01*
X54204Y613483D01*
X54149Y613560D01*
X54090Y613634D01*
X54029Y613706D01*
X53965Y613776D01*
X53898Y613843D01*
X53828Y613907D01*
X53756Y613968D01*
X53682Y614027D01*
X53605Y614082D01*
X53526Y614134D01*
X53445Y614183D01*
X53362Y614229D01*
X53277Y614271D01*
X53191Y614310D01*
X53103Y614345D01*
X53014Y614377D01*
X52924Y614405D01*
X52832Y614430D01*
X52740Y614451D01*
X52647Y614468D01*
X52553Y614481D01*
X52459Y614490D01*
X52365Y614496D01*
X52270Y614498D01*
X54619Y612148D02*
X54617Y612040D01*
X54611Y611931D01*
X54601Y611823D01*
X54588Y611716D01*
X54570Y611609D01*
X54549Y611502D01*
X54524Y611397D01*
X54495Y611292D01*
X54463Y611189D01*
X54426Y611087D01*
X54386Y610986D01*
X54343Y610887D01*
X54296Y610789D01*
X54245Y610693D01*
X54191Y610599D01*
X54134Y610507D01*
X54073Y610417D01*
X54009Y610329D01*
X53943Y610244D01*
X53873Y610161D01*
X53800Y610081D01*
X53724Y610003D01*
X53646Y609928D01*
X53565Y609856D01*
X53481Y609787D01*
X53395Y609721D01*
X53307Y609658D01*
X53216Y609599D01*
X53124Y609542D01*
X53029Y609489D01*
X52933Y609440D01*
X52834Y609394D01*
X52735Y609351D01*
X52633Y609312D01*
X52531Y609277D01*
X50442Y613715D02*
X50511Y613784D01*
X50582Y613850D01*
X50655Y613914D01*
X50731Y613975D01*
X50810Y614033D01*
X50890Y614087D01*
X50973Y614139D01*
X51057Y614187D01*
X51143Y614233D01*
X51231Y614274D01*
X51321Y614313D01*
X51412Y614348D01*
X51504Y614379D01*
X51597Y614407D01*
X51691Y614431D01*
X51786Y614451D01*
X51882Y614468D01*
X51979Y614481D01*
X52076Y614490D01*
X52173Y614496D01*
X52270Y614498D01*
X50442Y613715D02*
X45221Y609277D01*
X45221Y614498D01*
X49920Y618420D02*
X50105Y618422D01*
X50290Y618429D01*
X50474Y618440D01*
X50658Y618455D01*
X50842Y618475D01*
X51026Y618499D01*
X51208Y618528D01*
X51390Y618561D01*
X51571Y618598D01*
X51751Y618640D01*
X51931Y618686D01*
X52109Y618736D01*
X52285Y618790D01*
X52461Y618849D01*
X52635Y618911D01*
X52807Y618978D01*
X52978Y619049D01*
X53147Y619124D01*
X53314Y619203D01*
X53394Y619233D01*
X53473Y619266D01*
X53550Y619303D01*
X53626Y619343D01*
X53700Y619386D01*
X53772Y619432D01*
X53841Y619482D01*
X53909Y619534D01*
X53974Y619590D01*
X54037Y619648D01*
X54096Y619710D01*
X54154Y619773D01*
X54208Y619840D01*
X54259Y619908D01*
X54307Y619979D01*
X54352Y620052D01*
X54394Y620126D01*
X54432Y620203D01*
X54467Y620281D01*
X54499Y620360D01*
X54527Y620441D01*
X54551Y620523D01*
X54572Y620607D01*
X54589Y620690D01*
X54602Y620775D01*
X54611Y620860D01*
X54617Y620945D01*
X54619Y621031D01*
X54617Y621117D01*
X54611Y621202D01*
X54602Y621287D01*
X54589Y621372D01*
X54572Y621455D01*
X54551Y621539D01*
X54527Y621621D01*
X54499Y621702D01*
X54467Y621781D01*
X54432Y621859D01*
X54394Y621936D01*
X54352Y622010D01*
X54307Y622083D01*
X54259Y622154D01*
X54208Y622222D01*
X54154Y622289D01*
X54096Y622352D01*
X54037Y622414D01*
X53974Y622472D01*
X53909Y622528D01*
X53841Y622580D01*
X53772Y622630D01*
X53700Y622676D01*
X53626Y622719D01*
X53550Y622759D01*
X53473Y622796D01*
X53394Y622829D01*
X53314Y622859D01*
X53147Y622938D01*
X52978Y623013D01*
X52807Y623084D01*
X52635Y623151D01*
X52461Y623213D01*
X52285Y623272D01*
X52109Y623326D01*
X51931Y623376D01*
X51751Y623422D01*
X51571Y623464D01*
X51390Y623501D01*
X51208Y623534D01*
X51026Y623563D01*
X50842Y623587D01*
X50658Y623607D01*
X50474Y623622D01*
X50290Y623633D01*
X50105Y623640D01*
X49920Y623642D01*
X49920Y618420D02*
X49735Y618422D01*
X49550Y618429D01*
X49366Y618440D01*
X49182Y618455D01*
X48998Y618475D01*
X48814Y618499D01*
X48632Y618528D01*
X48450Y618561D01*
X48269Y618598D01*
X48089Y618640D01*
X47909Y618686D01*
X47731Y618736D01*
X47555Y618790D01*
X47379Y618849D01*
X47205Y618911D01*
X47033Y618978D01*
X46862Y619049D01*
X46693Y619124D01*
X46526Y619203D01*
X46446Y619233D01*
X46367Y619266D01*
X46290Y619303D01*
X46214Y619343D01*
X46140Y619386D01*
X46068Y619432D01*
X45999Y619482D01*
X45931Y619535D01*
X45866Y619590D01*
X45803Y619649D01*
X45744Y619710D01*
X45686Y619773D01*
X45632Y619840D01*
X45581Y619908D01*
X45533Y619979D01*
X45488Y620052D01*
X45446Y620126D01*
X45408Y620203D01*
X45373Y620281D01*
X45341Y620360D01*
X45313Y620441D01*
X45289Y620523D01*
X45268Y620607D01*
X45251Y620690D01*
X45238Y620775D01*
X45229Y620860D01*
X45223Y620945D01*
X45221Y621031D01*
X46526Y622859D02*
X46693Y622938D01*
X46862Y623013D01*
X47033Y623084D01*
X47205Y623151D01*
X47379Y623213D01*
X47555Y623272D01*
X47731Y623326D01*
X47909Y623376D01*
X48089Y623422D01*
X48269Y623464D01*
X48450Y623501D01*
X48632Y623534D01*
X48814Y623563D01*
X48998Y623587D01*
X49182Y623607D01*
X49366Y623622D01*
X49550Y623633D01*
X49735Y623640D01*
X49920Y623642D01*
X46526Y622859D02*
X46446Y622829D01*
X46367Y622796D01*
X46290Y622759D01*
X46214Y622719D01*
X46140Y622676D01*
X46068Y622630D01*
X45999Y622580D01*
X45931Y622528D01*
X45866Y622472D01*
X45803Y622414D01*
X45744Y622352D01*
X45686Y622289D01*
X45632Y622222D01*
X45581Y622154D01*
X45533Y622083D01*
X45488Y622010D01*
X45446Y621936D01*
X45408Y621859D01*
X45373Y621781D01*
X45341Y621702D01*
X45313Y621621D01*
X45289Y621539D01*
X45268Y621455D01*
X45251Y621372D01*
X45238Y621287D01*
X45229Y621202D01*
X45223Y621117D01*
X45221Y621031D01*
X47309Y618943D02*
X52531Y623120D01*
X54620Y630436D02*
X54618Y630531D01*
X54612Y630625D01*
X54603Y630719D01*
X54590Y630813D01*
X54573Y630906D01*
X54552Y630998D01*
X54527Y631090D01*
X54499Y631180D01*
X54467Y631269D01*
X54432Y631357D01*
X54393Y631443D01*
X54351Y631528D01*
X54305Y631611D01*
X54256Y631692D01*
X54204Y631771D01*
X54149Y631848D01*
X54090Y631922D01*
X54029Y631994D01*
X53965Y632064D01*
X53898Y632131D01*
X53828Y632195D01*
X53756Y632256D01*
X53682Y632315D01*
X53605Y632370D01*
X53526Y632422D01*
X53445Y632471D01*
X53362Y632517D01*
X53277Y632559D01*
X53191Y632598D01*
X53103Y632633D01*
X53014Y632665D01*
X52924Y632693D01*
X52832Y632718D01*
X52740Y632739D01*
X52647Y632756D01*
X52553Y632769D01*
X52459Y632778D01*
X52365Y632784D01*
X52270Y632786D01*
X54619Y630436D02*
X54617Y630328D01*
X54611Y630219D01*
X54601Y630111D01*
X54588Y630004D01*
X54570Y629897D01*
X54549Y629790D01*
X54524Y629685D01*
X54495Y629580D01*
X54463Y629477D01*
X54426Y629375D01*
X54386Y629274D01*
X54343Y629175D01*
X54296Y629077D01*
X54245Y628981D01*
X54191Y628887D01*
X54134Y628795D01*
X54073Y628705D01*
X54009Y628617D01*
X53943Y628532D01*
X53873Y628449D01*
X53800Y628369D01*
X53724Y628291D01*
X53646Y628216D01*
X53565Y628144D01*
X53481Y628075D01*
X53395Y628009D01*
X53307Y627946D01*
X53216Y627887D01*
X53124Y627830D01*
X53029Y627777D01*
X52933Y627728D01*
X52834Y627682D01*
X52735Y627639D01*
X52633Y627600D01*
X52531Y627565D01*
X50442Y632003D02*
X50511Y632072D01*
X50582Y632138D01*
X50655Y632202D01*
X50731Y632263D01*
X50810Y632321D01*
X50890Y632375D01*
X50973Y632427D01*
X51057Y632475D01*
X51143Y632521D01*
X51231Y632562D01*
X51321Y632601D01*
X51412Y632636D01*
X51504Y632667D01*
X51597Y632695D01*
X51691Y632719D01*
X51786Y632739D01*
X51882Y632756D01*
X51979Y632769D01*
X52076Y632778D01*
X52173Y632784D01*
X52270Y632786D01*
X50442Y632002D02*
X45221Y627565D01*
X45221Y632786D01*
X45221Y636708D02*
X45221Y639319D01*
X45223Y639420D01*
X45229Y639521D01*
X45239Y639622D01*
X45252Y639722D01*
X45270Y639822D01*
X45291Y639921D01*
X45317Y640019D01*
X45346Y640116D01*
X45378Y640212D01*
X45415Y640306D01*
X45455Y640399D01*
X45499Y640491D01*
X45546Y640580D01*
X45597Y640668D01*
X45651Y640754D01*
X45708Y640837D01*
X45768Y640919D01*
X45832Y640997D01*
X45898Y641074D01*
X45968Y641147D01*
X46040Y641218D01*
X46115Y641286D01*
X46193Y641351D01*
X46273Y641413D01*
X46355Y641472D01*
X46440Y641528D01*
X46527Y641580D01*
X46615Y641629D01*
X46706Y641675D01*
X46798Y641716D01*
X46892Y641755D01*
X46987Y641789D01*
X47083Y641820D01*
X47181Y641847D01*
X47279Y641871D01*
X47379Y641890D01*
X47479Y641906D01*
X47579Y641918D01*
X47680Y641926D01*
X47781Y641930D01*
X47883Y641930D01*
X47984Y641926D01*
X48085Y641918D01*
X48185Y641906D01*
X48285Y641890D01*
X48385Y641871D01*
X48483Y641847D01*
X48581Y641820D01*
X48677Y641789D01*
X48772Y641755D01*
X48866Y641716D01*
X48958Y641675D01*
X49049Y641629D01*
X49138Y641580D01*
X49224Y641528D01*
X49309Y641472D01*
X49391Y641413D01*
X49471Y641351D01*
X49549Y641286D01*
X49624Y641218D01*
X49696Y641147D01*
X49766Y641074D01*
X49832Y640997D01*
X49896Y640919D01*
X49956Y640837D01*
X50013Y640754D01*
X50067Y640668D01*
X50118Y640580D01*
X50165Y640491D01*
X50209Y640399D01*
X50249Y640306D01*
X50286Y640212D01*
X50318Y640116D01*
X50347Y640019D01*
X50373Y639921D01*
X50394Y639822D01*
X50412Y639722D01*
X50425Y639622D01*
X50435Y639521D01*
X50441Y639420D01*
X50443Y639319D01*
X54619Y639841D02*
X54619Y636708D01*
X54619Y639841D02*
X54617Y639931D01*
X54611Y640020D01*
X54602Y640110D01*
X54588Y640199D01*
X54571Y640287D01*
X54550Y640374D01*
X54525Y640461D01*
X54496Y640546D01*
X54464Y640630D01*
X54429Y640712D01*
X54389Y640793D01*
X54347Y640872D01*
X54301Y640949D01*
X54251Y641024D01*
X54199Y641097D01*
X54143Y641168D01*
X54085Y641236D01*
X54023Y641301D01*
X53959Y641364D01*
X53892Y641424D01*
X53823Y641481D01*
X53751Y641535D01*
X53677Y641586D01*
X53601Y641634D01*
X53523Y641678D01*
X53443Y641719D01*
X53361Y641757D01*
X53278Y641791D01*
X53193Y641821D01*
X53107Y641848D01*
X53021Y641871D01*
X52933Y641890D01*
X52844Y641905D01*
X52755Y641917D01*
X52666Y641925D01*
X52576Y641929D01*
X52486Y641929D01*
X52396Y641925D01*
X52307Y641917D01*
X52218Y641905D01*
X52129Y641890D01*
X52041Y641871D01*
X51955Y641848D01*
X51869Y641821D01*
X51784Y641791D01*
X51701Y641757D01*
X51619Y641719D01*
X51539Y641678D01*
X51461Y641634D01*
X51385Y641586D01*
X51311Y641535D01*
X51239Y641481D01*
X51170Y641424D01*
X51103Y641364D01*
X51039Y641301D01*
X50977Y641236D01*
X50919Y641168D01*
X50863Y641097D01*
X50811Y641024D01*
X50761Y640949D01*
X50715Y640872D01*
X50673Y640793D01*
X50633Y640712D01*
X50598Y640630D01*
X50566Y640546D01*
X50537Y640461D01*
X50512Y640374D01*
X50491Y640287D01*
X50474Y640199D01*
X50460Y640110D01*
X50451Y640020D01*
X50445Y639931D01*
X50443Y639841D01*
X50442Y639841D02*
X50442Y637753D01*
M02*
